<svg preserveAspectRatio="none" width="100%" height="100%" overflow="visible" style="display: block;" viewBox="0 0 24 24" fill="none" xmlns="http://www.w3.org/2000/svg">
<g id="Group_fill">
<circle id="Ellipse 46" cx="12" cy="8" r="5.33333" fill="var(--fill-0, #6F67ED)"/>
<circle id="Ellipse 47" cx="18.6667" cy="8" r="4" fill="var(--fill-0, #6F67ED)"/>
<circle id="Ellipse 48" cx="5.33333" cy="8" r="4" fill="var(--fill-0, #6F67ED)"/>
<path id="Subtract" d="M18.6671 13.333C22.1388 13.3333 23.3962 17.0238 23.8126 18.9131C23.94 19.4908 23.4863 20 22.8947 20H19.4249C18.8876 17.9873 17.8476 15.7048 15.838 14.4004C16.5609 13.762 17.4854 13.333 18.6671 13.333Z" fill="var(--fill-0, #6F67ED)"/>
<path id="Subtract_2" d="M5.33341 13.333C6.51494 13.333 7.43971 13.7611 8.16251 14.3994C6.15244 15.7037 5.11302 17.9871 4.5756 20H1.10489C0.513368 19.9999 0.0596567 19.4908 0.186926 18.9131C0.603403 17.0237 1.86138 13.333 5.33341 13.333Z" fill="var(--fill-0, #6F67ED)"/>
<path id="Rectangle 4160" d="M12 14.6667C17.1959 14.6667 18.3422 19.5262 18.5951 21.6704C18.6598 22.2189 18.219 22.6667 17.6667 22.6667H6.33333C5.78105 22.6667 5.34023 22.2189 5.40491 21.6704C5.6578 19.5262 6.80408 14.6667 12 14.6667Z" fill="var(--fill-0, #6F67ED)"/>
</g>
</svg>
