<svg preserveAspectRatio="none" width="100%" height="100%" overflow="visible" style="display: block;" viewBox="0 0 17.0888 17.088" fill="none" xmlns="http://www.w3.org/2000/svg">
<path id="Subtract" d="M8.64457 4.4433C9.67017 6.04664 11.0414 7.40892 12.6631 8.42474L5.77347 15.3154C5.34841 15.7404 5.13516 15.953 4.87406 16.0927C4.61311 16.2323 4.31846 16.2913 3.72953 16.4091L0.65238 17.0244C0.31977 17.0909 0.153238 17.1238 0.0586304 17.0292C-0.03566 16.9346 -0.00289749 16.7685 0.0635132 16.4365L0.679724 13.3593C0.797615 12.7699 0.856396 12.4749 0.99613 12.2138C1.13587 11.9528 1.34848 11.7404 1.77347 11.3154L8.64457 4.4433ZM13.0284 0.207945C13.5879 -0.0693263 14.2452 -0.0693037 14.8047 0.207945C15.0988 0.353681 15.3718 0.626562 15.917 1.17181C16.4621 1.71684 16.7352 1.98912 16.8809 2.28314C17.1581 2.84262 17.1581 3.5 16.8809 4.05951C16.7352 4.3536 16.4623 4.62656 15.917 5.17181L14.1202 6.96771C12.4476 6.01636 11.0624 4.63997 10.0987 2.98919L11.917 1.17181C12.4621 0.626778 12.7344 0.353724 13.0284 0.207945Z" fill="var(--fill-0, black)"/>
</svg>
