<svg preserveAspectRatio="none" width="100%" height="100%" overflow="visible" style="display: block;" viewBox="0 0 18 15" fill="none" xmlns="http://www.w3.org/2000/svg">
<g id="Group 21">
<path id="Subtract" d="M18 3C16.8954 3 16 3.89543 16 5V9C16 11.8284 15.9998 13.2424 15.1211 14.1211C14.2424 14.9998 12.8284 15 10 15H8C5.17157 15 3.75759 14.9998 2.87891 14.1211C2.00023 13.2424 2 11.8284 2 9V5C2 3.89543 1.10457 3 0 3V0H18V3ZM6.5 4C5.94772 4 5.5 4.44772 5.5 5V10C5.5 10.5523 5.94772 11 6.5 11C7.05228 11 7.5 10.5523 7.5 10V5C7.5 4.44772 7.05228 4 6.5 4ZM11.5 4C10.9477 4 10.5 4.44772 10.5 5V10C10.5 10.5523 10.9477 11 11.5 11C12.0523 11 12.5 10.5523 12.5 10V5C12.5 4.44772 12.0523 4 11.5 4Z" fill="var(--fill-0, black)"/>
</g>
</svg>
