<svg preserveAspectRatio="none" width="100%" height="100%" overflow="visible" style="display: block;" viewBox="0 0 344.863 318.524" fill="none" xmlns="http://www.w3.org/2000/svg">
<g id="Group 77">
<path id="Vector" d="M216.317 137.566C219.494 139.907 222.654 141.915 225.459 144.344C239.227 156.298 242.865 174.143 234.454 188.071C229.739 195.864 222.56 200.358 214.019 202.833C202.683 206.127 191.123 206.341 179.464 205.108C178.361 204.996 177.264 204.918 175.576 204.779C176.084 206.676 176.528 208.125 176.847 209.603C178.802 218.846 181.649 228.024 182.487 237.364C185.739 273.74 159.259 299.228 122.946 295.267C106.782 293.506 92.584 287.173 80.1239 276.809C67.5864 266.373 57.8037 253.756 50.4998 239.222C40.679 219.676 33.319 199.162 27.1087 178.216C25.3052 172.131 26.5416 167.737 30.3927 165.024C33.9511 162.521 39.8465 162.803 44.2153 165.679C48.1657 168.299 48.5254 172.31 44.7657 175.214C43.017 176.557 42.3732 177.618 43.0655 179.783C55.7741 219.983 78.6862 251.43 118.695 268.263C121.199 269.318 123.823 270.08 126.42 270.932C149.952 278.615 166.728 258.47 165.812 241.168C165.478 234.958 164.206 228.635 162.288 222.714C160.042 215.789 157.022 209.03 153.529 202.642C151.128 198.241 147.352 194.586 144.122 190.647C143.132 189.431 141.796 188.492 140.826 187.265C136.611 181.981 136.786 175.164 141.183 170.835C145.424 166.64 152.232 166.286 157.244 170.605C170.593 182.138 186.45 184.318 203.166 183.327C206.387 183.128 209.736 182.276 212.69 180.978C220.337 177.628 222.685 168.985 217.009 162.905C213.547 159.194 208.688 156.305 203.912 154.411C196.752 151.564 189.066 150.044 181.692 147.693C176.409 146.012 173.316 141.719 173.329 136.897C173.348 131.945 176.354 127.747 181.441 125.812C183.039 125.199 184.737 124.862 186.407 124.451C189.618 123.673 193.037 123.419 195.996 122.105C203.415 118.803 211.174 115.799 217.806 111.259C228.298 104.091 230.246 93.3532 224.504 82.0491C212.268 57.9823 188.589 45.1825 161.77 48.2522C116.79 53.4163 87.9689 84.0243 80.1167 121.407C75.9976 140.972 83.902 156.871 98.1087 169.844C104.29 175.497 109.953 175.117 116.662 169.875C116.896 169.697 117.089 169.491 117.333 169.333C119.987 167.55 122.551 164.456 126.07 167.03C129.303 169.405 128.956 173.074 128.072 176.502C126.279 183.497 121.835 188.043 114.877 189.901C104.983 192.552 95.5545 191.075 87.5623 184.753C71.9525 172.402 60.3733 157.177 57.1345 136.93C55.3892 126.036 57.676 115.431 61.5979 105.311C74.9954 70.7247 99.5182 48.1158 135.337 38.2431C152.842 33.4177 170.739 30.273 188.904 33.6148C217.236 38.8335 234.838 56.7991 243.579 83.3218C249.399 100.974 243.291 116.079 229.468 128.04C225.497 131.492 220.938 134.258 216.317 137.566Z" fill="var(--fill-0, #BCE2D7)"/>
<path id="Vector_2" d="M314.903 112.298C309.808 128.988 300.1 141.346 284.074 148.125C278.049 150.671 271.72 151.908 265.147 150.799C259.012 149.771 254.709 145.894 253.668 140.628C252.643 135.416 255.184 130.124 260.409 126.83C262.107 125.769 263.877 124.745 265.753 124.083C287.439 116.379 297.414 100.064 299.342 78.0549C299.787 72.9984 298.948 67.8252 298.771 62.6997C298.722 61.2524 298.958 59.7904 299.059 58.3381C300.511 58.719 302.176 58.7679 303.397 59.5414C310.166 63.8208 313.957 70.3137 316.187 77.7936C319.705 89.5421 317.714 101.091 314.903 112.298Z" fill="var(--fill-0, #BCE2D7)"/>
<path id="Vector_3" d="M337.189 162.318C328.7 187.291 309.938 198.299 284.877 195.384C279.544 194.759 275.029 192.267 272.272 187.398C270.184 183.716 270.099 179.837 272.638 176.439C275.034 173.245 278.12 171.723 282.652 172.16C286.622 172.546 290.764 170.908 294.848 170.356C313.659 167.795 324.057 156.054 329.433 138.805C329.776 137.704 329.961 136.524 330.498 135.546C331.059 134.543 331.976 133.728 332.735 132.833C333.588 133.679 334.796 134.382 335.235 135.402C339.131 144.43 339.358 153.721 337.189 162.318Z" fill="var(--fill-0, #BCE2D7)"/>
<path id="Vector_4" d="M115.017 134.594C112.633 132.792 108.716 130.716 105.979 127.6C101.414 122.418 103.466 116.41 109.484 113.039C121.854 106.115 128.636 113.496 134.188 123.209C136.109 126.578 135.132 130.225 131.747 132.262C127.084 135.061 121.868 135.824 115.017 134.594Z" fill="var(--fill-0, #BCE2D7)"/>
</g>
</svg>
