<svg preserveAspectRatio="none" width="100%" height="100%" overflow="visible" style="display: block;" viewBox="0 0 19.219 12.5523" fill="none" xmlns="http://www.w3.org/2000/svg">
<path id="Vector 9" d="M1.88562 6.27614L0.942809 5.33333L0 6.27614L0.942809 7.21895L1.88562 6.27614ZM17.8856 7.60948C18.622 7.60948 19.219 7.01252 19.219 6.27614C19.219 5.53976 18.622 4.94281 17.8856 4.94281V6.27614V7.60948ZM7.21895 0.942809L6.27614 0L0.942809 5.33333L1.88562 6.27614L2.82843 7.21895L8.16176 1.88562L7.21895 0.942809ZM1.88562 6.27614L0.942809 7.21895L6.27614 12.5523L7.21895 11.6095L8.16176 10.6667L2.82843 5.33333L1.88562 6.27614ZM1.88562 6.27614V7.60948H17.8856V6.27614V4.94281H1.88562V6.27614Z" fill="var(--stroke-0, white)"/>
</svg>
