<svg width="32" height="32" viewBox="0 0 32 32" fill="none" xmlns="http://www.w3.org/2000/svg">
<path d="M22.667 2.66699C24.8761 2.66699 26.667 4.45785 26.667 6.66699V17.334H20.001C19.0961 17.334 18.283 17.3311 17.6289 17.4189C16.9365 17.512 16.2254 17.7278 15.6436 18.3096C15.0616 18.8915 14.846 19.6025 14.7529 20.2949C14.665 20.949 14.668 21.7619 14.668 22.667V29.334H9.33398C7.12495 29.334 5.33416 27.543 5.33398 25.334V6.66699C5.33398 4.45785 7.12485 2.66699 9.33398 2.66699H22.667ZM26.3076 20C26.1111 20.4319 25.8381 20.8299 25.4961 21.1719L18.5059 28.1621C18.164 28.504 17.7657 28.7761 17.334 28.9727V22.667C17.334 21.6867 17.337 21.0855 17.3955 20.6504C17.4489 20.2537 17.5254 20.1992 17.5293 20.1953C17.5343 20.1899 17.5921 20.1143 17.9844 20.0615C18.4195 20.0031 19.0209 20 20.001 20H26.3076Z" fill="black"/>
</svg>
