<svg width="48" height="48" viewBox="0 0 48 48" fill="none" xmlns="http://www.w3.org/2000/svg">
<path fill-rule="evenodd" clip-rule="evenodd" d="M12.9481 32H31.751C35.4831 32 37.3491 32 38.5085 30.8284C39.6679 29.6569 39.6679 27.7712 39.6679 24V14C39.6679 10.2288 39.6679 8.34315 38.5085 7.17157C37.3491 6 35.4831 6 31.751 6H15.917C12.1849 6 10.3188 6 9.15942 7.17157C8 8.34315 8 10.2288 8 14V37C8 34.2386 10.2153 32 12.9481 32ZM33.7712 16C33.7712 13.7909 31.9804 12 29.7712 12L17.8962 12C15.6871 12 13.8962 13.7909 13.8962 16C13.8962 18.2091 15.6871 20 17.8962 20L29.7712 20C31.9804 20 33.7712 18.2091 33.7712 16Z" fill="black"/>
<path d="M38.5085 30.8284L37.087 29.4216L37.087 29.4216L38.5085 30.8284ZM38.5085 7.17157L37.087 8.57839L37.087 8.57839L38.5085 7.17157ZM29.7712 12V10V10V12ZM33.7712 16L31.7712 16V16H33.7712ZM17.8962 12V10V10V12ZM17.8962 20V18V18V20ZM29.7712 20V22V22V20ZM31.751 32V30H12.9481V32V34H31.751V32ZM38.5085 30.8284L37.087 29.4216C36.9399 29.5702 36.6776 29.756 35.8253 29.8718C34.9132 29.9957 33.6741 30 31.751 30V32V34C33.5599 34 35.1199 34.0043 36.3637 33.8353C37.6673 33.6583 38.9177 33.2582 39.9301 32.2352L38.5085 30.8284ZM39.6679 24H37.6679C37.6679 25.9416 37.6638 27.1986 37.5405 28.1253C37.4246 28.9966 37.2369 29.2701 37.087 29.4216L38.5085 30.8284L39.9301 32.2352C40.9396 31.2151 41.3316 29.9601 41.5056 28.6529C41.6721 27.401 41.6679 25.8296 41.6679 24H39.6679ZM39.6679 14H37.6679V24H39.6679H41.6679V14H39.6679ZM38.5085 7.17157L37.087 8.57839C37.2369 8.72985 37.4246 9.00344 37.5405 9.87469C37.6638 10.8014 37.6679 12.0584 37.6679 14H39.6679H41.6679C41.6679 12.1704 41.6721 10.599 41.5056 9.34713C41.3316 8.03988 40.9396 6.78487 39.9301 5.76475L38.5085 7.17157ZM31.751 6V8C33.6741 8 34.9132 8.00434 35.8253 8.12824C36.6776 8.24404 36.9399 8.42982 37.087 8.57839L38.5085 7.17157L39.9301 5.76476C38.9177 4.74175 37.6673 4.34175 36.3637 4.16465C35.1199 3.99566 33.5599 4 31.751 4V6ZM15.917 6V8H31.751V6V4H15.917V6ZM9.15942 7.17157L10.581 8.57839C10.728 8.42982 10.9903 8.24404 11.8427 8.12824C12.7547 8.00434 13.9938 8 15.917 8V6V4C14.1081 4 12.5481 3.99566 11.3042 4.16465C10.0006 4.34175 8.75023 4.74175 7.73785 5.76475L9.15942 7.17157ZM8 14H10C10 12.0584 10.0042 10.8014 10.1275 9.87469C10.2434 9.00343 10.4311 8.72985 10.581 8.57839L9.15942 7.17157L7.73785 5.76475C6.72832 6.78487 6.33633 8.03988 6.1624 9.34713C5.99584 10.599 6 12.1704 6 14H8ZM8 37H10V14H8H6V37H8ZM12.9481 32V30C9.09116 30 6 33.1537 6 37H8H10C10 35.3234 11.3395 34 12.9481 34V32ZM29.7712 12V14C30.8758 14 31.7712 14.8954 31.7712 16L33.7712 16L35.7712 16C35.7712 12.6863 33.0849 10 29.7712 10V12ZM17.8962 12V14L29.7712 14V12V10L17.8962 10V12ZM13.8962 16H15.8962C15.8962 14.8954 16.7917 14 17.8962 14V12V10C14.5825 10 11.8962 12.6863 11.8962 16H13.8962ZM17.8962 20V18C16.7917 18 15.8962 17.1046 15.8962 16H13.8962H11.8962C11.8962 19.3137 14.5825 22 17.8962 22V20ZM29.7712 20V18L17.8962 18V20V22H29.7712V20ZM33.7712 16H31.7712C31.7712 17.1046 30.8758 18 29.7712 18V20V22C33.0849 22 35.7712 19.3137 35.7712 16H33.7712ZM21.8547 42V40H12.9481V42V44H21.8547V42ZM8 37H6C6 40.8463 9.09116 44 12.9481 44V42V40C11.3395 40 10 38.6766 10 37H8Z" fill="black"/>
<path d="M39.5854 42H19.793" stroke="black" stroke-width="4" stroke-linecap="round"/>
</svg>
