<svg width="32" height="32" viewBox="0 0 32 32" fill="none" xmlns="http://www.w3.org/2000/svg">
<path d="M16.001 2.66699C18.0002 2.66699 19.6018 2.66841 20.9043 2.7666C20.7522 3.14816 20.668 3.56414 20.668 4V4.66699H20.001C18.1601 4.66699 16.6681 6.1592 16.668 8C16.668 9.84095 18.16 11.333 20.001 11.333H20.668V12C20.668 13.8409 22.16 15.333 24.001 15.333C25.0914 15.3329 26.059 14.8094 26.667 14V18.667C26.667 23.6951 26.6674 26.2094 25.1055 27.7715C23.5434 29.3335 21.0291 29.334 16.001 29.334C10.9728 29.334 8.45859 29.3334 6.89648 27.7715C5.33439 26.2094 5.33398 23.6953 5.33398 18.667V13.334C5.33398 8.30568 5.33439 5.79159 6.89648 4.22949C8.45858 2.6674 10.9727 2.66699 16.001 2.66699ZM10.667 22.667C9.93087 22.6672 9.33416 23.2639 9.33398 24C9.33398 24.7363 9.93076 25.3328 10.667 25.333H16C16.7364 25.333 17.334 24.7364 17.334 24C17.3338 23.2638 16.7363 22.667 16 22.667H10.667ZM10.667 18.667C9.93087 18.6672 9.33416 19.2639 9.33398 20C9.33398 20.7363 9.93076 21.3328 10.667 21.333H18.667C19.4034 21.333 20 20.7364 20 20C19.9998 19.2638 19.4033 18.667 18.667 18.667H10.667ZM10.667 14.667C9.93087 14.6672 9.33416 15.2639 9.33398 16C9.33398 16.7363 9.93076 17.3328 10.667 17.333H16C16.7364 17.333 17.334 16.7364 17.334 16C17.3338 15.2638 16.7363 14.667 16 14.667H10.667Z" fill="black"/>
<path d="M24 4L24 12" stroke="black" stroke-width="2.66667" stroke-linecap="round"/>
<path d="M28 8L20 8" stroke="black" stroke-width="2.66667" stroke-linecap="round"/>
</svg>
