<svg width="32" height="32" viewBox="0 0 32 32" fill="none" xmlns="http://www.w3.org/2000/svg">
<path d="M16.001 9.33398C16.001 9.9247 15.998 10.5021 16.0615 10.9746C16.1302 11.4854 16.2973 12.0686 16.7812 12.5527C17.2655 13.0369 17.8495 13.2048 18.3604 13.2734C18.8328 13.3369 19.4103 13.334 20.001 13.334H26.667V21.334C26.667 25.1048 26.6675 26.9906 25.4961 28.1621C24.3245 29.3337 22.4382 29.334 18.667 29.334H13.334C9.56292 29.334 7.67744 29.3335 6.50586 28.1621C5.33432 26.9906 5.33398 25.105 5.33398 21.334V10.667C5.33398 6.89576 5.33429 5.01044 6.50586 3.83887C7.67743 2.66729 9.56275 2.66699 13.334 2.66699H16.001V9.33398ZM12.001 21.334C11.2646 21.334 10.668 21.9306 10.668 22.667C10.668 23.4034 11.2646 24 12.001 24H17.334C18.0702 23.9998 18.668 23.4033 18.668 22.667C18.668 21.9307 18.0702 21.3342 17.334 21.334H12.001ZM12.001 16.001C11.2646 16.001 10.668 16.5976 10.668 17.334C10.6681 18.0702 11.2647 18.667 12.001 18.667H20.001C20.7371 18.6668 21.3338 18.0701 21.334 17.334C21.334 16.5977 20.7372 16.0012 20.001 16.001H12.001ZM18.667 2.67383C19.216 2.68741 19.5797 2.73042 19.917 2.87012C20.4069 3.07315 20.792 3.45896 21.5625 4.22949L25.1055 7.77148C25.8762 8.54218 26.2609 8.92793 26.4639 9.41797C26.6035 9.75515 26.6466 10.1182 26.6602 10.667H20.001C19.3348 10.667 18.9684 10.6649 18.7148 10.6309C18.7115 10.6304 18.7083 10.6294 18.7051 10.6289C18.7047 10.6259 18.7045 10.6223 18.7041 10.6191C18.67 10.3656 18.667 9.99981 18.667 9.33398V2.67383Z" fill="black"/>
</svg>
