<svg width="24" height="24" viewBox="0 0 24 24" fill="none" xmlns="http://www.w3.org/2000/svg">
<path d="M14.333 15.3984C14.5168 15.3986 14.6668 15.5476 14.667 15.7314V22.3984H10V15.7314C10.0002 15.5476 10.1492 15.3986 10.333 15.3984H14.333ZM12.333 1C13.8127 1 15.0547 2.0649 17.5391 4.19434L18.873 5.33691C20.2475 6.515 20.9348 7.10476 21.3008 7.90039C21.6665 8.69592 21.666 9.60117 21.666 11.4111V17.0654C21.666 19.579 21.6665 20.8362 20.8857 21.6172C20.1401 22.3629 18.9601 22.3959 16.667 22.3975V15.7314C16.6668 14.443 15.6214 13.3986 14.333 13.3984H10.333C9.0446 13.3986 8.00018 14.443 8 15.7314V22.3975C5.70628 22.3959 4.52605 22.363 3.78027 21.6172C2.99955 20.8362 3 19.579 3 17.0654V11.4111C3 9.60117 2.9995 8.69592 3.36523 7.90039C3.73117 7.10476 4.41853 6.515 5.79297 5.33691L7.12695 4.19434C9.6113 2.0649 10.8533 1 12.333 1Z" fill="black"/>
</svg>
