<svg width="24" height="24" viewBox="0 0 24 24" fill="none" xmlns="http://www.w3.org/2000/svg">
<path d="M12 12L18.1254 16.1694C18.6725 16.5418 19 17.1608 19 17.8227V20.5C19 20.7761 18.7761 21 18.5 21H5.5C5.22386 21 5 20.7761 5 20.5V17.8227C5 17.1608 5.32746 16.5418 5.87462 16.1694L12 12ZM12 12L18.1254 7.83062C18.6725 7.45819 19 6.83917 19 6.17729V3.5C19 3.22386 18.7761 3 18.5 3H5.5C5.22386 3 5 3.22386 5 3.5V6.17729C5 6.83917 5.32746 7.45819 5.87462 7.83062L12 12Z" stroke="black" stroke-width="2" stroke-linecap="round" stroke-linejoin="round"/>
<path d="M19 17.5V22H5V17.5L12 13L19 17.5ZM12.4238 16.2646C12.1645 16.1027 11.8355 16.1027 11.5762 16.2646L8.23535 18.3535C8.08916 18.4449 8 18.6049 8 18.7773V20.8496C8 20.9325 8.06755 21 8.15039 21H15.8496C15.9325 21 16 20.9325 16 20.8496V18.7773C16 18.6049 15.9108 18.4449 15.7646 18.3535L12.4238 16.2646Z" fill="black"/>
<path d="M19 7.5V3H5V7.5L12 12L19 7.5Z" fill="black"/>
</svg>
