<svg width="32" height="32" viewBox="0 0 32 32" fill="none" xmlns="http://www.w3.org/2000/svg">
<path d="M24.5072 16.6666C24.5072 17.0348 24.8056 17.3333 25.1738 17.3333C25.542 17.3333 25.8405 17.0348 25.8405 16.6666L25.1738 16.6666L24.5072 16.6666ZM25.1738 12L24.5072 12L24.5072 16.6666L25.1738 16.6666L25.8405 16.6666L25.8405 12L25.1738 12Z" fill="black"/>
<path d="M22.667 19.9995C22.667 19.9995 22.6673 23.9994 16.001 23.9995C9.33431 23.9995 9.33398 19.9995 9.33398 19.9995V15.8728C9.33398 15.625 9.59476 15.4639 9.81639 15.5747L15.4043 18.3686C15.7795 18.5562 16.2214 18.5561 16.5967 18.3686L22.1846 15.5747C22.4062 15.4639 22.667 15.625 22.667 15.8728V19.9995Z" fill="black"/>
<path d="M6.52655 11.404L15.7025 6.81606C15.8902 6.72222 16.1111 6.72222 16.2988 6.81606L25.4747 11.404C25.9661 11.6497 25.9661 12.3509 25.4747 12.5966L16.2988 17.1846C16.1111 17.2784 15.8902 17.2784 15.7025 17.1846L6.52655 12.5966C6.03519 12.3509 6.03519 11.6497 6.52655 11.404Z" fill="black"/>
</svg>
