<svg width="48" height="48" viewBox="0 0 48 48" fill="none" xmlns="http://www.w3.org/2000/svg">
<path d="M8.22293 27.849C6.81413 25.4764 6.81413 22.5236 8.22293 20.151C8.65808 19.4182 9.38304 18.9037 10.2185 18.7348L13.5456 18.0624C13.7454 18.022 13.9253 17.9141 14.055 17.7568L18.0819 12.8739C20.4489 10.0037 21.6324 8.56868 22.6915 8.94908C23.7507 9.32949 23.7507 11.1896 23.7507 14.9098L23.7507 33.0902C23.7507 36.8104 23.7507 38.6705 22.6915 39.0509C21.6324 39.4313 20.4489 37.9963 18.0819 35.1261L14.055 30.2432C13.9253 30.0859 13.7454 29.978 13.5456 29.9376L10.2185 29.2652C9.38304 29.0963 8.65808 28.5818 8.22293 27.849Z" fill="black"/>
<path d="M29.6895 30L41.5649 18" stroke="black" stroke-width="4" stroke-linecap="round"/>
<path d="M41.5645 30L29.689 18" stroke="black" stroke-width="4" stroke-linecap="round"/>
</svg>
