<svg width="30" height="30" viewBox="0 0 30 30" fill="none" xmlns="http://www.w3.org/2000/svg">
<path d="M12.5 2.5H17.5M15 17.5V12.5M5 16.25C5.30608 13.82 6.49332 11.5868 8.33656 9.97393C10.1798 8.36109 12.5508 7.4808 15 7.5C16.6176 7.50172 18.2106 7.8958 19.6423 8.64845C21.0741 9.4011 22.302 10.4898 23.2205 11.8213C24.1391 13.1527 24.721 14.6871 24.9162 16.2928C25.1115 17.8986 24.9143 19.5277 24.3416 21.0405C23.7689 22.5533 22.8378 23.9046 21.6281 24.9784C20.4185 26.0523 18.9663 26.8167 17.3963 27.206C15.8263 27.5953 14.1853 27.598 12.614 27.2138C11.0428 26.8296 9.58817 26.0699 8.375 25L5 22M11.25 21.25H5V27.5" stroke="black" stroke-width="2.5" stroke-linecap="round" stroke-linejoin="round"/>
</svg>
