<svg width="271" height="254" viewBox="0 0 271 254" fill="none" xmlns="http://www.w3.org/2000/svg">
<path d="M63.8927 22.968C55.6322 25.5221 48.3577 27.9303 40.9539 30.0028C31.5618 32.6154 22.1051 35.0528 12.616 37.3442C6.79646 38.7453 2.06 36.775 0.508116 32.7467C-1.14076 28.4557 1.2678 24.0772 7.08736 22.1652C28.4581 15.1157 49.8935 8.22679 71.345 1.38163C73.9315 0.549708 76.7767 0.111848 79.541 0.00968166C88.5613 -0.296818 93.6048 6.72346 89.7251 14.0357C79.1206 33.9581 74.7235 55.5006 69.6799 76.868C69.5991 77.2183 69.7445 77.6124 69.8577 78.6194C86.0231 72.3289 103.951 71.3656 119.76 62.4771C114.765 59.3392 110.126 56.5953 105.697 53.5887C102.318 51.2972 98.6 49.1079 96.0782 46.1451C89.1109 37.9572 94.0252 27.4778 105.39 26.3102C125.499 24.2231 145.043 20.3116 163.65 12.941C165.654 12.1529 167.804 11.6421 169.938 11.1458C179.088 9.07331 185.683 13.4373 185.117 22.0338C184.616 29.5358 183.016 37.0085 181.399 44.4083C176.679 66.1113 171.716 87.7706 166.592 110.656C183.307 106.496 199.133 102.556 215.056 98.6003C209.818 87.8728 204.872 77.7291 199.925 67.6001C199.214 66.1406 198.389 64.7102 197.872 63.2069C195.641 56.8142 199.149 51.2243 206.472 50.1734C218.353 48.4512 230.316 47.1668 242.23 45.5613C247.306 44.8753 252.317 43.7953 257.361 42.9342C264.053 41.7812 268.741 44.204 270.18 50.2318C270.988 53.6617 271.263 57.398 270.713 60.8571C266.349 88.0042 261.725 115.122 257.151 142.255C256.326 147.086 255.275 151.887 254.354 156.704C253.449 161.52 249.892 164.702 243.491 165.724C234.244 167.212 224.868 168.103 215.67 169.81C186.912 175.123 158.17 180.582 129.492 186.259C123.963 187.354 118.71 189.645 113.375 191.484C110.918 192.331 108.606 193.571 106.133 194.389C94.7041 198.198 85.5706 193.746 83.7116 182.844C81.2544 168.365 80.8503 153.799 84.5199 139.365C84.9078 137.832 85.2796 136.3 85.8615 133.921C79.848 134.621 74.3518 135.044 69.0011 136.066C67.9827 136.256 67.1581 138.752 66.8348 140.284C61.0799 168.03 55.5676 195.834 49.6026 223.535C48.1477 230.249 45.5449 236.817 42.7968 243.21C41.4712 246.304 38.9819 249.237 36.2822 251.544C31.5943 255.557 24.9986 254.565 22.396 249.208C20.7633 245.851 19.8257 241.677 20.3591 238.101C22.008 227.213 24.5299 216.442 26.6799 205.612C31.7073 180.304 36.9126 155.011 41.6491 129.659C43.1686 121.544 47.8566 116.655 56.1494 113.75C67.5137 109.766 79.2176 110.408 90.9537 111.065C94.7526 111.284 98.5514 111.824 102.269 112.597C111.193 114.451 114.992 120.493 112.615 128.506C111.096 133.629 109.495 138.737 108.348 143.918C106.618 151.683 107.281 159.433 109.027 167.066C109.576 167.183 109.916 167.358 110.142 167.271C131.804 159.17 155.001 158.295 177.794 155.361C196.401 152.967 214.926 150.151 233.452 147.275C234.891 147.056 236.831 145.144 237.105 143.772C238.754 135.57 239.999 127.294 241.341 119.034C244.364 100.41 247.37 81.7866 250.377 63.1631C250.571 61.9955 250.652 60.8279 250.895 58.7408C240.064 60.8279 229.75 62.8275 219.097 64.8854C219.631 66.8266 219.825 68.1401 220.326 69.3369C224.254 78.6049 228.15 87.8728 232.272 97.0678C234.131 101.242 232.773 104.964 227.859 106.759C222.557 108.7 217.141 110.379 211.758 112.145C196.174 117.253 180.575 122.317 165.008 127.44C159.382 129.294 153.692 131.191 148.309 127.236C142.748 123.149 143.702 117.632 144.914 112.174C150.62 86.5884 156.327 60.9885 162.001 35.4031C162.276 34.1479 162.421 32.8781 162.696 31.1996C151.897 34.5565 141.697 37.7383 131.044 41.0514C133.453 43.5034 135.877 45.6051 137.817 48.0279C140.727 51.6621 143.895 55.2671 145.884 59.31C148.81 65.2503 145.965 70.957 139.305 73.2776C123.721 78.7362 108.024 83.9467 92.3924 89.3177C85.5383 91.6676 78.6841 94.032 71.9431 96.6446C58.6551 101.826 48.471 95.579 50.7988 82.7061C54.048 64.681 58.4935 46.8165 62.454 28.8936C62.7611 27.2443 63.23 25.5951 63.8927 22.968Z" fill="url(#paint0_linear_536_6340)"/>
<defs>
<linearGradient id="paint0_linear_536_6340" x1="135.5" y1="31" x2="135.5" y2="147.5" gradientUnits="userSpaceOnUse">
<stop stop-color="#FDEFC8"/>
<stop offset="1" stop-color="#FDEFC8" stop-opacity="0"/>
</linearGradient>
</defs>
</svg>
