<svg width="270" height="250" viewBox="0 0 270 250" fill="none" xmlns="http://www.w3.org/2000/svg">
<path d="M237.564 140.919C234.995 137.334 233.224 134.16 230.783 131.642C228.263 129.044 224.941 127.264 222.234 124.807C218.201 121.138 213.803 117.651 210.631 113.286C204.017 104.213 205.473 94.7098 214.213 87.6597C218.145 84.4891 222.61 81.9191 227.064 79.4634C233.242 76.0487 236.644 70.8922 238.137 64.1356C240.84 51.8944 231.696 40.6269 219.581 43.3216C201.8 47.2716 184.653 52.4238 172.31 68.336C160.907 83.0542 150.759 98.0676 144.549 115.657C143.076 119.831 140.71 123.688 139.279 127.866C138.133 131.205 137.234 134.814 137.169 138.316C137.069 144.255 133.298 147.86 127.608 145.937C124.672 144.945 121.718 142.954 119.677 140.62C111.13 130.941 110.305 119.643 114.258 107.912C116.246 101.998 119.046 96.3499 121.801 90.7263C122.989 88.3004 122.575 87.0618 120.463 85.6153C113.886 81.0794 107.285 80.9592 101.61 86.6174C98.3014 89.9205 95.702 94.2451 93.7259 98.5437C88.7932 109.211 87.9154 120.648 88.2764 132.262C88.3635 135.086 88.1466 138.068 87.2823 140.727C85.5183 146.115 80.1023 147.77 75.6988 144.196C73.464 142.376 71.5072 139.775 70.4081 137.113C61.3397 115.386 64.0681 94.9896 78.0663 76.1482C79.6599 74.0071 79.8914 72.5136 78.6206 70.2824C76.6067 66.7809 74.7026 63.189 73.0228 59.5177C64.2852 40.3344 49.0795 29.0421 29.212 23.3908C27.7092 22.9563 26.2079 22.5076 24.7051 22.0731C23.2167 21.64 21.7254 21.2356 20.1526 20.7799C20.8141 13.9572 21.4534 7.36329 22.1649 0.0256253C56.2575 10.4058 78.4831 32.2397 88.669 66.5644C104.805 58.7299 118.448 61.8718 130.355 74.721C131.161 73.7019 131.801 72.7678 132.56 71.9318C142.347 61.085 151.556 49.6479 162.09 39.5809C174.66 27.5746 191.187 24.0515 207.87 22.6371C215.018 22.0308 222.54 22.7746 229.558 24.4079C252.049 29.6495 262.002 51.1886 256.537 72.1134C253.802 82.6044 248.014 90.7783 238.654 96.3245C235.3 98.3093 231.934 100.264 227.891 102.644C229.935 104.503 231.527 106.101 233.297 107.5C236.877 110.33 241.077 112.585 244.043 115.948C248.403 120.861 252.787 126.123 255.569 131.98C261.262 143.996 256.939 155.084 245.198 161.366C235.878 166.353 225.788 167.223 215.509 166.616C205.089 165.981 194.68 165.073 184.267 164.367C181.685 164.189 179.085 164.355 175.907 164.365C176.4 166.131 176.703 167.474 177.156 168.759C179.715 176.169 182.528 183.487 184.806 190.97C186.24 195.686 187.54 200.591 187.817 205.484C189.44 233.116 162.167 244.578 144.91 239.396C131.358 235.324 117.992 230.073 105.355 223.707C89.0705 215.501 73.4894 205.848 57.8103 196.459C40.1257 185.865 24.4169 172.763 10.1827 157.854C7.90186 155.467 6.71412 153.273 7.42623 149.949C7.95916 147.431 7.98271 144.805 8.29614 141.573C11.0183 142.833 13.3986 143.598 15.4073 144.919C20.5238 148.288 25.5863 151.768 30.4678 155.475C45.3806 166.811 61.1172 176.797 77.884 185.093C94.4847 193.315 111.07 201.551 127.872 209.33C133.62 211.996 139.929 213.633 146.121 215.142C149.437 215.94 153.178 216.072 156.518 215.429C163.814 214.043 166.351 209.914 164.962 202.647C164.395 199.704 163.536 196.806 162.523 193.993C159.382 185.141 156.318 176.239 152.833 167.513C147.417 153.979 150.625 143.823 168.176 142.247C182.057 140.994 195.736 141.079 209.546 142.793C216.58 143.663 223.82 142.993 230.961 142.762C232.778 142.779 234.59 141.814 237.564 140.919Z" fill="url(#paint0_linear_536_6331)"/>
<defs>
<linearGradient id="paint0_linear_536_6331" x1="145.76" y1="12.0094" x2="123.859" y2="237.883" gradientUnits="userSpaceOnUse">
<stop stop-color="#C9CFFC"/>
<stop offset="1" stop-color="#C9CFFC" stop-opacity="0.2"/>
</linearGradient>
</defs>
</svg>
