<svg width="524" height="293" viewBox="0 0 524 293" fill="none" xmlns="http://www.w3.org/2000/svg">
<path d="M192.041 149.953C192.473 146.648 192.336 143.671 193.311 141.032C195.235 135.873 197.568 130.81 200.139 125.872C202.924 120.493 206.689 115.47 209.017 109.957C210.703 105.944 211.3 101.394 211.346 97.0687C211.383 93.376 208.553 90.6156 204.545 89.2488C200.647 87.9268 196.525 88.363 194.015 91.1188C188.689 96.9245 181.24 99.8971 174.421 103.63C142.143 121.278 108.236 136.024 73.021 148.443C54.8058 154.87 36.0919 157.647 16.5348 155.124C11.2482 154.445 5.89039 154.323 -0.000244141 156.651C1.52353 158.289 2.55359 159.887 4.07819 160.909C6.24534 162.359 8.66142 163.67 11.1951 164.532C31.8233 171.513 52.7453 173.154 74.2542 167.677C97.2908 161.811 118.688 152.581 139.876 142.929C152.776 137.064 165.322 130.579 178.565 124.106C178.012 125.454 177.572 126.559 177.095 127.649C173.699 135.435 171.629 143.448 172.484 151.863C173.498 161.785 179.852 167.347 191.05 167.784C196.914 168.01 202.802 167.53 208.681 167.463C213.99 167.396 215.119 168.427 214.005 173.028C213.221 176.3 211.771 179.453 210.513 182.624C207.609 189.972 204.335 197.212 201.813 204.664C200.443 208.735 199.794 213.125 199.718 217.378C199.455 230.751 210.161 239.657 225.113 238.277C231.434 237.693 237.556 235.657 243.85 234.644C249.478 233.731 255.185 232.97 260.887 232.812C265.264 232.687 265.734 233.761 264.69 237.654C262.695 245.081 257.671 250.512 250.59 254.606C240.975 260.165 230.26 263.123 219.096 264.768C211.015 265.955 202.951 267.218 194.572 266.138C187.206 265.197 182.018 271.258 183.652 278.099C185.001 283.722 189.017 287.686 195.024 289.122C202.159 290.824 209.586 292.455 216.899 292.47C237.47 292.519 256.342 286.953 272.993 276.138C287.073 266.991 295.823 254.772 297.481 239.099C299.207 222.787 289.184 211.134 271.134 207.956C258.5 205.728 246.448 208.327 234.459 211.438C231.495 212.211 228.549 212.992 224.589 214.031C225.708 210.605 226.292 207.879 227.46 205.367C230.158 199.566 233.609 194.018 235.887 188.098C238.063 182.444 240.267 176.493 240.47 170.611C240.976 156.432 228.796 146.445 212.9 147.266C207.841 147.523 202.835 148.597 197.789 149.288C196.164 149.517 194.508 149.675 192.041 149.953Z" fill="url(#paint0_linear_536_6335)"/>
<path d="M342.699 97.6105C342.582 94.0281 342.388 90.4424 342.375 86.8547C342.34 78.5984 342.454 70.3363 342.405 62.0841C342.385 59.2983 342.297 56.4931 341.85 53.7443C339.931 41.9489 330.82 35.8559 317.887 38.9518C308.507 41.1954 299.633 45.1667 290.525 48.3428C285.777 49.9977 281.005 51.5921 276.265 53.2307C260.541 58.6651 243.594 47.2103 242.295 33.4888C241.709 27.259 242.746 21.4774 246.099 15.9704C247.782 13.2148 249.474 10.4428 250.764 7.53757C251.881 5.0108 251.767 2.3354 248.768 0.739978C245.842 -0.823844 243.217 0.29786 240.98 2.18074C240.039 2.97245 239.209 3.89255 238.448 4.83215C227.914 17.9083 227.165 41.735 236.848 55.3092C247.77 70.6153 263.336 75.9501 282.747 70.4759C291.064 68.1264 299.031 64.7602 307.183 61.9467C310.672 60.7347 314.273 59.732 318.327 58.4814C318.496 60.9093 318.886 63.0796 318.76 65.2191C318.238 73.688 317.457 82.1556 316.981 90.624C316.697 95.8346 316.696 101.066 316.781 106.285C316.809 107.998 317.397 109.741 318.007 111.382C322.551 123.777 335.925 128.257 347.939 120.85C357.261 115.1 366.042 108.624 374.776 102.147C387.716 92.5438 400.342 82.6035 413.226 72.9359C416.209 70.7007 419.632 68.9266 422.888 67.0003C425.724 65.3255 427.766 65.7934 428.736 68.8686C432.382 80.4429 430.383 91.4546 424.303 101.964C423.859 102.738 422.034 103.138 420.784 103.253C418.083 103.517 415.264 103.167 412.635 103.653C408.929 104.349 407.606 106.777 409.376 109.714C412.921 115.6 417.955 120.186 425.862 120.769C433.346 121.319 438.824 117.745 441.974 112.07C451.376 95.115 451.763 77.7429 442.864 60.5927C438.333 51.8666 428.779 48.3093 418.541 51.4408C411.84 53.4813 405.202 56.4242 399.484 60.1265C387.245 68.0499 375.659 76.7883 363.735 85.089C357.205 89.6382 350.508 93.995 343.876 98.4401C343.499 98.1364 343.108 97.8774 342.699 97.6105Z" fill="url(#paint1_linear_536_6335)"/>
<path d="M489.732 122.056C492.48 120.883 497.101 118.994 501.65 116.989C507.021 114.614 512.314 112.097 517.68 109.698C522.222 107.667 524.895 104.137 523.625 99.7827C522.587 96.1965 520.747 92.4639 518.125 89.6294C512.405 83.4625 506.045 77.747 499.79 71.9848C496.406 68.8651 492.198 67.4378 487.303 68.8686C482.365 70.3075 480.556 73.8151 479.454 78.0506C477.295 86.2774 474.761 94.4194 472.369 102.599C471.803 104.504 470.993 106.377 470.64 108.306C468.829 117.841 477.185 124.73 489.732 122.056Z" fill="url(#paint2_linear_536_6335)"/>
<defs>
<linearGradient id="paint0_linear_536_6335" x1="217" y1="8.49999" x2="297" y2="246" gradientUnits="userSpaceOnUse">
<stop stop-color="#FDEFC8"/>
<stop offset="1" stop-color="#FDEFC8" stop-opacity="0"/>
</linearGradient>
<linearGradient id="paint1_linear_536_6335" x1="217" y1="8.49999" x2="297" y2="246" gradientUnits="userSpaceOnUse">
<stop stop-color="#FDEFC8"/>
<stop offset="1" stop-color="#FDEFC8" stop-opacity="0"/>
</linearGradient>
<linearGradient id="paint2_linear_536_6335" x1="217" y1="8.49999" x2="297" y2="246" gradientUnits="userSpaceOnUse">
<stop stop-color="#FDEFC8"/>
<stop offset="1" stop-color="#FDEFC8" stop-opacity="0"/>
</linearGradient>
</defs>
</svg>
