<svg preserveAspectRatio="none" width="100%" height="100%" overflow="visible" style="display: block;" viewBox="0 0 160 162.53" fill="none" xmlns="http://www.w3.org/2000/svg">
<g id="Group 76">
<path id="Star 1" d="M73.2469 22.9283C75.2203 16.1804 76.207 12.8065 78.1028 12.8065C79.9986 12.8065 80.9853 16.1804 82.9587 22.9283L88.0011 40.1704C91.8034 53.1723 93.7046 59.6732 98.2804 64.249C102.856 68.8248 109.357 70.726 122.359 74.5284L139.601 79.5708C146.349 81.5442 149.723 82.5309 149.723 84.4267C149.723 86.3225 146.349 87.3092 139.601 89.2826L122.359 94.325C109.357 98.1274 102.856 100.029 98.2804 104.604C93.7046 109.18 91.8034 115.681 88.0011 128.683L82.9587 145.925C80.9853 152.673 79.9986 156.047 78.1028 156.047C76.207 156.047 75.2203 152.673 73.2469 145.925L68.2045 128.683C64.4021 115.681 62.5009 109.18 57.9251 104.604C53.3493 100.029 46.8483 98.1274 33.8464 94.325L16.6043 89.2826C9.85649 87.3092 6.48257 86.3225 6.48257 84.4267C6.48257 82.5309 9.8565 81.5442 16.6043 79.5708L33.8464 74.5284C46.8483 70.726 53.3493 68.8248 57.9251 64.249C62.5009 59.6732 64.4021 53.1723 68.2045 40.1704L73.2469 22.9283Z" fill="var(--fill-0, #F2EAE0)"/>
<path id="Star 2" d="M133.021 8.302C132.034 4.92808 131.541 3.24111 130.593 3.24111C129.645 3.24111 129.152 4.92807 128.165 8.302L127.826 9.46102C125.925 15.962 124.974 19.2125 122.686 21.5004C120.398 23.7883 117.148 24.7389 110.647 26.64L109.488 26.979C106.114 27.9657 104.427 28.459 104.427 29.4069C104.427 30.3548 106.114 30.8482 109.488 31.8349L110.647 32.1738C117.148 34.075 120.398 35.0256 122.686 37.3135C124.974 39.6014 125.925 42.8519 127.826 49.3529L128.165 50.5119C129.152 53.8858 129.645 55.5728 130.593 55.5728C131.541 55.5728 132.034 53.8858 133.021 50.5119L133.36 49.3529C135.261 42.8519 136.212 39.6014 138.499 37.3135C140.787 35.0256 144.038 34.075 150.539 32.1738L151.698 31.8349C155.072 30.8482 156.759 30.3548 156.759 29.4069C156.759 28.459 155.072 27.9657 151.698 26.979L150.539 26.64C144.038 24.7389 140.787 23.7883 138.499 21.5004C136.212 19.2125 135.261 15.962 133.36 9.46102L133.021 8.302Z" fill="var(--fill-0, #F2EAE0)"/>
<path id="Star 3" d="M26.1942 123.677C25.7009 121.99 25.4542 121.146 24.9802 121.146C24.5063 121.146 24.2596 121.99 23.7663 123.677L23.5824 124.305C22.0614 129.506 21.3009 132.107 19.4706 133.937C17.6403 135.767 15.0399 136.528 9.83917 138.049L9.21037 138.232C7.52341 138.726 6.67993 138.973 6.67993 139.446C6.67993 139.92 7.52341 140.167 9.21037 140.66L9.83917 140.844C15.0399 142.365 17.6403 143.126 19.4706 144.956C21.3009 146.786 22.0614 149.387 23.5824 154.588L23.7663 155.216C24.2596 156.903 24.5063 157.747 24.9802 157.747C25.4542 157.747 25.7009 156.903 26.1942 155.216L26.3781 154.588C27.899 149.387 28.6595 146.786 30.4898 144.956C32.3202 143.126 34.9205 142.365 40.1213 140.844L40.7501 140.66C42.4371 140.167 43.2805 139.92 43.2805 139.446C43.2805 138.973 42.4371 138.726 40.7501 138.232L40.1213 138.049C34.9205 136.528 32.3202 135.767 30.4898 133.937C28.6595 132.107 27.899 129.506 26.3781 124.305L26.1942 123.677Z" fill="var(--fill-0, #F2EAE0)"/>
</g>
</svg>
