<svg preserveAspectRatio="none" width="100%" height="100%" overflow="visible" style="display: block;" viewBox="0 0 589.859 1100.2" fill="none" xmlns="http://www.w3.org/2000/svg">
<g id="Vector">
<path d="M205.317 105.339C208.494 107.681 211.654 109.688 214.459 112.117C228.227 124.071 231.864 141.916 223.454 155.844C218.739 163.637 211.56 168.131 203.019 170.606C191.683 173.9 180.123 174.114 168.464 172.882C167.361 172.769 166.264 172.691 164.576 172.553C165.084 174.449 165.528 175.898 165.847 177.377C167.802 186.619 170.649 195.797 171.487 205.138C174.738 241.513 148.259 267.001 111.945 263.04C95.7822 261.28 81.5838 254.947 69.1237 244.583C56.5862 234.147 46.8035 221.529 39.4996 206.995C29.6788 187.449 22.3188 166.936 16.1085 145.989C14.305 139.904 15.5414 135.51 19.3926 132.798C22.9509 130.295 28.8463 130.576 33.2151 133.452C37.1655 136.073 37.5252 140.083 33.7655 142.987C32.0168 144.33 31.373 145.391 32.0654 147.556C44.7739 187.756 67.686 219.204 107.695 236.037C110.199 237.092 112.823 237.853 115.419 238.705C138.952 246.388 155.728 226.243 154.811 208.941C154.478 202.731 153.206 196.409 151.288 190.487C149.042 183.563 146.021 176.804 142.529 170.416C140.128 166.014 136.352 162.359 133.122 158.42C132.132 157.204 130.796 156.265 129.825 155.038C125.61 149.754 125.786 142.938 130.182 138.608C134.423 134.413 141.232 134.059 146.244 138.378C159.593 149.911 175.45 152.091 192.165 151.1C195.386 150.902 198.736 150.05 201.69 148.751C209.337 145.401 211.685 136.758 206.009 130.678C202.547 126.967 197.688 124.078 192.912 122.185C185.751 119.337 178.065 117.817 170.691 115.467C165.408 113.785 162.316 109.492 162.329 104.67C162.347 99.7181 165.354 95.5199 170.441 93.5852C172.039 92.9719 173.736 92.6351 175.406 92.2242C178.618 91.4467 182.037 91.1919 184.996 89.8783C192.415 86.5761 200.173 83.5722 206.806 79.0323C217.298 71.8645 219.245 61.1264 213.504 49.8223C201.268 25.7555 177.589 12.9557 150.77 16.0255C105.79 21.1895 76.9687 51.7975 69.1165 89.1807C64.9974 108.746 72.9018 124.644 87.1085 137.617C93.2894 143.27 98.9528 142.89 105.662 137.648C105.896 137.47 106.089 137.264 106.333 137.106C108.986 135.323 111.551 132.229 115.07 134.804C118.302 137.178 117.956 140.847 117.072 144.275C115.279 151.27 110.834 155.817 103.877 157.674C93.9826 160.325 84.5543 158.848 76.5621 152.526C60.9523 140.175 49.3731 124.95 46.1343 104.703C44.3891 93.809 46.6758 83.2044 50.5977 73.0846C63.9952 38.498 88.518 15.889 124.336 6.01631C141.842 1.19096 159.739 -1.95373 177.904 1.38808C206.236 6.60672 223.838 24.5724 232.579 51.095C238.399 68.7471 232.291 83.852 218.468 95.8136C214.497 99.2647 209.938 102.031 205.317 105.339Z" fill="url(#paint0_linear_546_5554)"/>
<path d="M303.903 80.071C298.808 96.7608 289.1 109.119 273.074 115.898C267.049 118.444 260.72 119.681 254.147 118.573C248.012 117.545 243.709 113.667 242.668 108.401C241.643 103.189 244.183 97.897 249.409 94.6036C251.107 93.5422 252.877 92.5184 254.753 91.8557C276.439 84.1518 286.414 67.8377 288.342 45.8281C288.787 40.7716 287.948 35.5985 287.771 30.473C287.722 29.0256 287.958 27.5637 288.059 26.1113C289.511 26.4922 291.176 26.5412 292.396 27.3146C299.166 31.594 302.957 38.087 305.187 45.5668C308.704 57.3153 306.714 68.8643 303.903 80.071Z" fill="url(#paint1_linear_546_5554)"/>
<path d="M326.189 130.091C317.699 155.064 298.937 166.072 273.876 163.157C268.544 162.532 264.028 160.041 261.271 155.172C259.184 151.489 259.099 147.61 261.638 144.212C264.033 141.019 267.12 139.496 271.652 139.933C275.622 140.319 279.764 138.681 283.848 138.129C302.659 135.568 313.057 123.827 318.433 106.578C318.776 105.477 318.961 104.297 319.498 103.319C320.058 102.316 320.975 101.501 321.735 100.606C322.588 101.452 323.796 102.156 324.235 103.175C328.131 112.203 328.358 121.494 326.189 130.091Z" fill="url(#paint2_linear_546_5554)"/>
<path d="M104.017 114.178C101.633 112.036 97.7162 109.567 94.9787 105.864C90.4133 99.7039 92.4658 92.5621 98.4838 88.5551C110.854 80.3248 117.636 89.0992 123.188 100.644C125.109 104.649 124.132 108.985 120.747 111.406C116.084 114.732 110.868 115.639 104.017 114.178Z" fill="url(#paint3_linear_546_5554)"/>
<path d="M271.934 303.764C274.445 307.902 276.577 312.323 279.546 316.097C285.405 323.535 291.674 330.626 297.848 337.811C306.108 347.428 313.672 357.503 318.172 369.52C320.525 375.774 321.283 382.074 318.157 388.312C314.572 395.45 308.287 398.845 300.849 400.503C290.426 402.84 280.178 400.993 270.229 398.261C250.742 392.907 231.476 386.749 212.036 381.206C193.086 375.805 173.741 372.268 154.081 371.02C147.29 370.594 140.295 371.052 133.583 372.22C124.913 373.721 118.834 378.916 116.386 387.744C116.038 388.991 115.328 390.128 114.191 391.249C111.396 386.922 110.464 382.327 111.269 377.511C112.738 368.588 118.155 362.509 125.971 358.529C137.184 352.829 149.28 350.507 161.755 350.444C184.653 350.349 206.809 354.834 228.444 362.051C241.63 366.457 254.642 371.447 267.876 375.695C274.808 377.921 282.041 379.169 289.163 380.811C290.268 381.064 291.453 381.08 292.59 381.08C299.68 381.032 301.007 379.437 297.39 373.468C292.132 364.798 286.242 356.476 280.288 348.265C274.477 340.258 267.765 332.9 262.349 324.656C258.874 319.366 256.3 313.208 254.642 307.081C252.021 297.385 256.711 289.868 266.297 286.662C275.172 283.693 284.157 284.53 293.079 286.409C311.082 290.184 327.032 298.632 342.081 308.802C354.083 316.903 365.358 326.093 377.47 334.021C395.031 345.533 414.707 348.091 435.205 345.501C440.179 344.87 444.159 342.896 446.859 337.969C450.175 331.905 456.16 329.931 461.435 332.015C466.82 334.131 469.394 339.832 468.083 346.78C467.957 347.491 467.83 348.202 467.594 348.881C453.128 390.033 431.667 425.817 391.825 447.42C378.765 454.494 364.932 459.595 350.577 463.337C349.629 463.59 348.698 463.906 346.234 464.648C347.987 465.706 348.998 466.18 349.835 466.859C370.759 484.135 387.356 504.695 397.81 529.93C414.17 569.409 430.562 608.872 446.906 648.351C452.639 662.2 458.671 675.86 469.962 686.266C473.421 689.456 477.195 692.409 481.206 694.841C486.212 697.873 490.176 696.894 492.529 691.541C494.566 686.93 496.177 681.703 496.192 676.744C496.224 663.353 494.518 650.167 488.249 637.928C487.349 636.191 487.096 632.907 488.139 631.707C489.244 630.427 492.655 629.827 494.297 630.585C497.14 631.88 500.409 633.965 501.72 636.586C510.531 654.399 514.763 672.986 508.778 692.693C507.831 695.789 506.173 698.789 504.309 701.458C497.282 711.533 486.338 714.912 475.679 708.848C467.957 704.458 460.914 698.505 454.471 692.299C445.154 683.345 438.947 672.038 433.894 660.242C420.566 629.133 407.538 597.897 394.273 566.756C388.982 554.36 383.787 541.9 377.802 529.82C365.074 504.111 346.376 483.709 321.52 469.228C317.635 466.97 313.056 465.864 308.792 464.269C305.981 463.227 302.949 462.611 300.375 461.174C296.001 458.742 294.122 454.052 295.116 449.441C296.096 444.83 299.712 441.261 304.655 440.803C307.75 440.519 310.971 440.803 314.051 441.308C324.726 443.077 335.117 442.366 345.476 439.034C372.417 430.396 395.947 416.421 414.597 394.913C419.239 389.56 423.124 383.559 427.467 377.7C396.736 369.267 372.496 351.107 348.003 333.437C329.985 320.44 311.271 308.786 289.305 303.717C283.999 302.485 278.425 302.422 272.977 301.838C272.566 302.485 272.25 303.133 271.934 303.764Z" fill="url(#paint4_linear_546_5554)"/>
<path d="M110.89 1007.86C107.179 1006.52 103.579 1005.49 100.199 1003.96C83.6024 996.413 75.0433 980.337 79.1491 964.593C81.4547 955.782 87.0608 949.433 94.5461 944.633C104.479 938.253 115.502 934.763 127.03 932.631C128.119 932.426 129.193 932.189 130.851 931.842C129.825 930.168 128.988 928.904 128.261 927.578C123.761 919.272 118.423 911.281 114.965 902.564C101.51 868.613 119.655 836.651 155.597 830.129C171.594 827.223 187.007 829.26 201.898 835.656C216.884 842.099 229.849 851.416 240.983 863.275C255.953 879.224 268.839 896.8 280.746 915.118C284.205 920.44 284.268 925.004 281.346 928.699C278.646 932.11 272.914 933.516 267.908 932C263.375 930.61 261.891 926.867 264.67 923.014C265.965 921.23 266.281 920.03 265.002 918.15C241.393 883.22 210.489 859.58 167.346 854.811C164.645 854.511 161.914 854.526 159.182 854.448C134.436 853.768 124.077 877.851 129.872 894.179C131.957 900.038 134.973 905.738 138.494 910.87C142.616 916.871 147.432 922.493 152.596 927.625C156.15 931.163 160.808 933.594 165.024 936.453C166.319 937.337 167.867 937.858 169.146 938.758C174.689 942.627 176.458 949.212 173.473 954.613C170.599 959.84 164.172 962.114 158.139 959.398C142.063 952.134 126.24 954.55 110.496 960.251C107.464 961.356 104.495 963.125 102.031 965.209C95.6515 970.594 95.8568 979.548 103.026 983.764C107.401 986.338 112.88 987.728 117.997 988.186C125.671 988.881 133.473 988.154 141.211 988.312C146.753 988.423 150.938 991.66 152.296 996.287C153.686 1001.04 151.996 1005.92 147.669 1009.22C146.311 1010.26 144.779 1011.07 143.295 1011.94C140.437 1013.59 137.231 1014.81 134.768 1016.91C128.593 1022.18 122.008 1027.27 116.939 1033.51C108.916 1043.36 110.101 1054.21 118.818 1063.42C137.389 1083.01 163.73 1088.56 188.57 1077.99C230.228 1060.26 249.163 1022.72 246.068 984.648C244.457 964.72 232.36 951.723 215.053 943.322C207.52 939.659 202.198 941.632 197.255 948.565C197.082 948.802 196.955 949.054 196.766 949.275C194.729 951.739 193.15 955.434 189.044 953.966C185.269 952.608 184.559 948.991 184.432 945.454C184.164 938.237 187.133 932.615 193.276 928.857C202.009 923.504 211.468 922.24 220.927 926.03C239.403 933.437 254.832 944.743 263.691 963.235C268.46 973.184 269.281 984.001 268.397 994.818C265.381 1031.79 248.294 1060.43 216.758 1080.08C201.345 1089.68 185.08 1097.78 166.714 1099.74C138.068 1102.78 116.086 1090.56 100.168 1067.62C89.5717 1052.35 91.135 1036.13 100.989 1020.73C103.816 1016.29 107.4 1012.35 110.89 1007.86Z" fill="url(#paint5_linear_546_5554)"/>
<path d="M406.888 946.336C417.311 947.236 427.118 948.089 437.73 949.021C436.561 946.968 435.74 945.531 434.903 944.094C430.718 936.83 427.307 929.281 426.549 920.801C425.349 907.505 432.25 900.667 445.436 902.041C461.086 903.683 474.682 910.3 486.716 919.964C504.071 933.893 523.81 942.673 545.066 948.405C549.74 949.668 554.62 950.395 559.452 950.711C564.727 951.042 566.195 949.51 565.137 944.347C563.195 934.824 561.916 924.86 558.063 916.08C552.33 903.02 544.94 890.64 537.581 878.37C533.175 871.011 526.527 865.579 518.315 862.452C511.714 859.941 509.408 860.873 505.366 866.621C504.197 868.295 502.018 869.258 500.312 870.553C499.27 868.658 497.612 866.858 497.264 864.836C494.548 848.982 504.165 838.338 520.194 839.554C532.306 840.47 542.824 845.65 550.909 854.43C573.538 879.017 587.419 907.726 589.82 941.457C589.883 942.31 589.851 943.178 589.851 944.047C589.788 962.728 578.766 974.145 560.005 973.561C551.967 973.308 543.755 971.492 536.033 969.092C513.972 962.238 493.474 952.258 475.061 937.951C468.034 932.487 459.57 928.839 451.674 924.512C450.11 923.66 448.215 923.407 445.578 922.602C446.289 925.097 446.399 927.007 447.299 928.445C451.5 935.077 455.795 941.662 460.312 948.073C462.033 950.505 464.418 952.463 466.518 954.627C470.782 959.033 471.856 963.202 469.818 967.402C467.75 971.682 463.439 973.198 457.296 972.661C435.882 970.75 414.453 968.902 393.008 967.323C383.738 966.644 378.59 960.628 381.101 951.705C387.828 927.829 384.796 904.663 375.7 882.223C366.383 859.23 353.544 838.18 337.468 819.199C335.178 816.499 332.588 814.035 329.793 811.114C328.783 812.803 328.088 813.972 327.409 815.125C321.234 813.514 318.502 806.329 321.929 800.391C324.961 795.117 329.92 792.606 335.715 793.664C340.39 794.517 345.332 796.128 349.17 798.828C354.855 802.823 360.524 807.403 364.693 812.898C385.096 839.791 401.188 868.847 406.873 902.736C409.005 915.417 409.399 928.113 407.552 940.872C407.283 942.483 407.125 944.173 406.888 946.336Z" fill="url(#paint6_linear_546_5554)"/>
<path d="M134.923 689.297C146.578 688.097 157.395 686.992 168.212 685.855C178.051 684.812 187.873 683.486 197.727 682.76C210.629 681.812 216.819 687.766 216.567 700.699C216.409 708.421 215.698 716.127 215.224 723.849C215.193 724.418 215.145 724.986 215.193 725.555C215.951 734.414 213.977 738.504 205.07 740.651C189.784 744.347 174.324 747.694 158.753 749.842C140.45 752.369 121.958 753.585 103.529 755.101C97.2601 755.622 90.9119 755.527 84.6268 755.337C78.2153 755.148 74.4727 751.832 73.6515 745.452C73.0041 740.493 72.9567 735.456 72.8146 730.45C72.2776 711.816 71.8355 693.166 71.267 674.532C71.2196 673.222 70.7616 671.595 69.8931 670.679C58.7599 659.057 50.9746 645.113 42.6366 631.579C38.057 624.157 33.5721 616.577 30.019 608.619C25.4078 598.275 24.334 587.521 30.7612 577.272C36.1936 568.619 44.6263 564.402 54.354 563.155C75.7676 560.391 95.0019 566.455 112.262 578.931C130.028 591.769 142.251 608.571 145.851 630.553C148.204 644.876 145.093 658.82 140.798 672.479C139.14 677.801 137.134 682.996 134.923 689.297ZM200.538 718.417C199.48 715.543 198.453 713.458 197.964 711.248C197.206 707.805 195.5 706.857 191.916 707.094C180.909 707.821 169.855 707.852 158.832 708.547C146.546 709.321 134.276 710.332 122.037 711.627C118.184 712.037 114.884 712.021 112.357 708.8C109.815 705.563 110.604 702.246 111.915 698.662C116.542 686.029 121.532 673.474 125.227 660.557C130.754 641.291 127.77 623.305 114.268 607.797C104.509 596.585 92.1278 589.764 77.7889 586.432C70.0826 584.631 62.2657 583.447 54.4014 585.784C48.669 587.489 46.8214 590.237 48.0532 596.033C48.7954 599.507 49.8534 603.06 51.5589 606.139C59.2179 619.909 66.9243 633.664 75.1518 647.102C77.4416 650.861 81.1999 654.051 84.9268 656.514C90.1538 659.988 92.7595 664.299 92.3647 670.474C92.1752 673.332 91.8909 676.19 91.6856 679.049C90.3907 697.635 89.0642 716.222 87.8641 734.808C87.6904 737.43 88.1167 740.099 88.2904 743.194C89.838 742.578 90.6908 742.388 91.354 741.93C97.876 737.398 105.219 735.045 112.989 734.129C122.669 732.992 132.428 732.471 142.061 731.113C161.69 728.318 181.967 728.255 200.538 718.417Z" fill="url(#paint7_linear_546_5554)"/>
<path d="M322.153 630.856C338.214 630.919 352.979 635.372 366.512 643.979C381.199 653.296 393.895 664.807 404.207 678.846C420.125 700.496 433.138 723.694 440.765 749.608C445.866 766.947 451.172 784.254 455.246 801.846C462.637 833.698 479.076 859.959 502.353 882.367C507.169 886.994 512.365 890.895 519.045 892.521C522.629 893.39 525.298 895.521 525.424 899.627C525.551 903.796 523.277 906.891 519.518 907.57C514.986 908.407 510.107 908.723 505.59 907.934C496.036 906.275 488.156 900.954 480.734 894.874C455.357 874.092 437.717 848.21 428.637 816.58C423.252 797.835 417.788 779.106 412.229 760.409C405.439 737.591 394.274 716.935 380.062 697.985C366.181 679.478 348.841 665.613 325.754 660.228C323.243 659.644 320.685 659.249 318.111 658.98C300.266 657.133 286.891 663.544 278.379 679.841C271.399 693.201 266.298 706.797 269.078 722.225C269.22 723.031 268.651 723.978 268.414 724.847C267.372 724.105 265.951 723.599 265.319 722.589C257.013 709.324 256.239 695.08 260.345 680.362C261.529 676.098 263.092 671.898 264.893 667.855C276.089 642.92 294.818 630.872 322.153 630.856Z" fill="url(#paint8_linear_546_5554)"/>
<path d="M161.441 487.894C191.209 488.178 220.55 492.631 249.875 497.242C264.166 499.485 278.489 501.632 292.828 503.669C298.434 504.459 303.061 506.607 305.667 511.833C314.779 530.057 323.448 548.486 328.17 568.414C329.354 573.436 328.754 578.9 328.944 584.159C328.991 585.438 328.817 586.733 328.96 587.996C329.907 595.892 325.943 600.85 317.89 600.756C311.178 600.692 304.388 600.219 297.771 599.145C271.604 594.913 245.485 590.365 219.349 585.959C217.533 585.659 215.559 585.027 213.854 585.406C208.69 586.559 205.642 584.127 202.547 580.384C189.235 564.246 176.127 547.886 162.041 532.441C154.666 524.356 145.381 518.04 137.059 510.807C134.264 508.375 131.279 505.943 129.258 502.927C125.231 496.926 127.394 491.289 134.516 490.041C141.954 488.731 149.597 488.541 157.146 487.909C158.567 487.799 160.004 487.894 161.441 487.894ZM310.104 577.337C304.372 561.293 298.987 546.038 293.381 530.862C292.986 529.804 290.965 528.809 289.638 528.73C280.937 528.162 272.046 528.809 263.535 527.293C237.305 522.635 211.201 517.155 185.05 512.023C178.165 510.665 171.264 509.402 163.952 508.028C164.378 509.023 164.41 509.354 164.599 509.528C182.965 525.983 197.051 546.212 213.143 564.656C214.185 565.84 216.207 566.851 217.739 566.82C238.757 566.488 259.508 569.141 280.211 572.283C289.954 573.784 299.634 575.568 310.104 577.337Z" fill="url(#paint9_linear_546_5554)"/>
<path d="M296.757 734.116C314.617 727.088 330.757 731.321 346.185 740.401C348.064 741.506 349.628 743.464 350.859 745.344C352.897 748.439 353.165 751.881 350.907 755.039C348.57 758.308 345.317 758.419 341.653 757.456C331.957 754.897 322.15 752.702 312.501 750.034C304.227 747.744 297.926 750.507 292.699 756.761C291.609 758.071 290.661 759.477 289.603 760.898C284.029 754.518 285.734 745.596 293.378 736.879C285.766 721.577 287.519 704.001 305.774 695.6C310.733 693.311 316.434 691.747 321.866 691.494C342.427 690.578 361.282 696.248 378.148 708.107C381.274 710.302 384.117 713.081 386.533 716.05C389.723 719.966 389.66 724.783 387.07 727.989C384.512 731.147 380.611 731.842 375.731 729.71C358.171 722.051 339.805 717.898 320.681 717.298C308.206 716.903 301.052 722.13 296.757 734.116Z" fill="url(#paint10_linear_546_5554)"/>
<path d="M0.0308327 546.592C0.251917 531.211 7.83195 520.188 20.7654 512.751C36.8571 503.497 54.2438 502.518 72.0569 505.945C100.198 511.345 124.027 525.005 145.015 544.144C147.415 546.323 150.494 547.776 152.879 549.956C155.785 552.624 158.911 555.356 160.854 558.688C164.059 564.199 160.064 570.5 153.684 570.326C151.079 570.248 148.236 569.411 145.978 568.1C140.167 564.705 134.482 561.073 129.002 557.156C107.636 541.87 84.5323 530.548 58.4918 525.779C45.4952 523.394 33.1461 525.115 21.2549 530.848C13.2011 534.732 7.95826 541.017 4.35775 548.992C3.72608 550.398 2.43112 551.503 1.45203 552.751C0.978278 551.124 0.488808 549.497 0.0466398 547.855C-0.0481105 547.476 0.0308327 547.018 0.0308327 546.592Z" fill="url(#paint11_linear_546_5554)"/>
<path d="M449.432 479.965C448.595 496.546 447.868 513.127 446.858 529.692C446.495 535.535 443.478 539.009 439.104 539.783C434.967 540.509 431.287 538.283 428.729 533.103C425.76 527.055 423.375 520.707 420.107 514.832C415.18 505.973 409.7 497.414 404.457 488.729C403.352 486.897 401.962 485.192 401.125 483.234C398.788 477.738 401.141 472.495 406.731 470.3C407.536 469.984 408.358 469.637 409.195 469.542C416.553 468.69 423.123 465.91 429.708 462.531C439.957 457.272 447.774 461.741 449.621 473.143C449.985 475.401 450.095 477.691 450.316 479.98C450.016 479.965 449.716 479.965 449.432 479.965Z" fill="url(#paint12_linear_546_5554)"/>
<path d="M220.518 320.316C217.092 318.8 213.839 318.295 212.054 316.4C204.142 307.936 194.052 302.803 184.261 297.134C182.903 296.345 181.513 295.587 180.218 294.702C177.028 292.523 175.165 289.554 175.765 285.591C176.365 281.643 178.955 279.337 182.681 278.184C189.235 276.131 195.852 274.221 202.311 271.899C204.916 270.968 207.411 269.357 209.591 267.588C212.212 265.441 214.849 264.083 218.229 265.141C221.766 266.246 223.74 268.883 223.993 272.436C224.672 281.864 225.256 291.307 225.588 300.75C225.761 305.551 225.698 310.446 224.94 315.184C224.656 317 222.161 318.484 220.518 320.316Z" fill="url(#paint13_linear_546_5554)"/>
<path d="M218.352 788.564C218.415 781.805 220.516 776.025 226.88 772.819C233.607 769.44 239.94 771.177 245.988 774.999C247.993 776.278 250.188 777.257 252.304 778.362C252.557 778.488 252.841 778.552 253.11 778.662C265.08 784 269.596 806.455 260.564 815.851C255.573 821.047 249.351 821.978 242.687 820.32C229.896 817.13 218.194 801.734 218.352 788.564ZM231.712 786.637C231.586 794.217 238.092 802.807 244.724 805.066C248.704 806.424 250.52 805.05 249.13 801.007C247.33 795.812 245.056 790.616 241.992 786.1C240.824 784.363 236.908 784.158 234.191 784C233.212 783.952 232.138 786.147 231.712 786.637Z" fill="url(#paint14_linear_546_5554)"/>
<path d="M172.606 398.387C176.886 399.461 181.355 400.093 185.429 401.703C195.788 405.825 200.431 415.584 197.304 425.754C194.035 436.413 184.466 442.382 173.664 440.203C164.584 438.371 158.109 433.065 154.635 424.427C149.329 411.21 158.157 398.671 172.606 398.387Z" fill="url(#paint15_linear_546_5554)"/>
<path d="M169.903 330.894C167.124 330.278 161.928 329.662 157.112 327.973C146.579 324.262 136.172 320.124 125.828 315.892C123.396 314.897 121.028 313.16 119.259 311.202C114.727 306.196 116.827 299.927 123.444 298.443C125.623 297.953 128.134 297.795 130.234 298.38C145.568 302.612 160.886 306.86 176.078 311.581C182.173 313.476 184.747 318.072 183.831 322.904C182.868 328.068 178.636 331.005 169.903 330.894Z" fill="url(#paint16_linear_546_5554)"/>
<path d="M319.799 944.727C322.847 946.969 326.053 948.343 327.758 950.759C333.87 959.413 339.523 968.383 345.224 977.321C347.925 981.568 346.156 984.964 341.15 986.053C335.986 987.174 330.838 988.438 325.737 989.812C321.679 990.901 318.836 990.491 316.594 986.164C312.062 977.4 306.913 968.967 302.034 960.376C300.028 956.855 301.086 953.507 304.15 951.754C308.903 949.054 314.146 947.206 319.799 944.727Z" fill="url(#paint17_linear_546_5554)"/>
<path d="M343.599 345.992C345.367 346.781 349.11 347.744 352 349.876C357.401 353.84 362.391 358.42 367.428 362.873C373.003 367.8 378.372 372.964 383.962 377.89C387.642 381.128 388.874 385.202 386.915 388.929C385.005 392.545 380.63 394.25 376.13 392.75C373.998 392.04 371.882 390.934 370.066 389.608C358.19 380.907 347.989 370.469 338.956 358.878C337.898 357.535 336.966 356.051 336.208 354.519C333.824 349.655 336.287 345.865 343.599 345.992Z" fill="url(#paint18_linear_546_5554)"/>
<path d="M358.662 596.541C363.763 596.336 366.274 598.689 366.527 603.916C366.716 607.911 363.621 611.085 359.247 611.338C354.667 611.606 350.088 608.337 350.451 604.484C350.893 599.699 351.967 596.099 358.662 596.541Z" fill="url(#paint19_linear_546_5554)"/>
</g>
<defs>
<linearGradient id="paint0_linear_546_5554" x1="294.93" y1="7.08517e-08" x2="294.93" y2="1100.2" gradientUnits="userSpaceOnUse">
<stop offset="0.0153773" stop-color="#BCE2D7"/>
<stop offset="0.501172" stop-color="#5B9E91"/>
<stop offset="0.831683" stop-color="#418B7E"/>
</linearGradient>
<linearGradient id="paint1_linear_546_5554" x1="294.93" y1="7.08517e-08" x2="294.93" y2="1100.2" gradientUnits="userSpaceOnUse">
<stop offset="0.0153773" stop-color="#BCE2D7"/>
<stop offset="0.501172" stop-color="#5B9E91"/>
<stop offset="0.831683" stop-color="#418B7E"/>
</linearGradient>
<linearGradient id="paint2_linear_546_5554" x1="294.93" y1="7.08517e-08" x2="294.93" y2="1100.2" gradientUnits="userSpaceOnUse">
<stop offset="0.0153773" stop-color="#BCE2D7"/>
<stop offset="0.501172" stop-color="#5B9E91"/>
<stop offset="0.831683" stop-color="#418B7E"/>
</linearGradient>
<linearGradient id="paint3_linear_546_5554" x1="294.93" y1="7.08517e-08" x2="294.93" y2="1100.2" gradientUnits="userSpaceOnUse">
<stop offset="0.0153773" stop-color="#BCE2D7"/>
<stop offset="0.501172" stop-color="#5B9E91"/>
<stop offset="0.831683" stop-color="#418B7E"/>
</linearGradient>
<linearGradient id="paint4_linear_546_5554" x1="294.93" y1="7.08517e-08" x2="294.93" y2="1100.2" gradientUnits="userSpaceOnUse">
<stop offset="0.0153773" stop-color="#BCE2D7"/>
<stop offset="0.501172" stop-color="#5B9E91"/>
<stop offset="0.831683" stop-color="#418B7E"/>
</linearGradient>
<linearGradient id="paint5_linear_546_5554" x1="294.93" y1="7.08517e-08" x2="294.93" y2="1100.2" gradientUnits="userSpaceOnUse">
<stop offset="0.0153773" stop-color="#BCE2D7"/>
<stop offset="0.501172" stop-color="#5B9E91"/>
<stop offset="0.831683" stop-color="#418B7E"/>
</linearGradient>
<linearGradient id="paint6_linear_546_5554" x1="294.93" y1="7.08517e-08" x2="294.93" y2="1100.2" gradientUnits="userSpaceOnUse">
<stop offset="0.0153773" stop-color="#BCE2D7"/>
<stop offset="0.501172" stop-color="#5B9E91"/>
<stop offset="0.831683" stop-color="#418B7E"/>
</linearGradient>
<linearGradient id="paint7_linear_546_5554" x1="294.93" y1="7.08517e-08" x2="294.93" y2="1100.2" gradientUnits="userSpaceOnUse">
<stop offset="0.0153773" stop-color="#BCE2D7"/>
<stop offset="0.501172" stop-color="#5B9E91"/>
<stop offset="0.831683" stop-color="#418B7E"/>
</linearGradient>
<linearGradient id="paint8_linear_546_5554" x1="294.93" y1="7.08517e-08" x2="294.93" y2="1100.2" gradientUnits="userSpaceOnUse">
<stop offset="0.0153773" stop-color="#BCE2D7"/>
<stop offset="0.501172" stop-color="#5B9E91"/>
<stop offset="0.831683" stop-color="#418B7E"/>
</linearGradient>
<linearGradient id="paint9_linear_546_5554" x1="294.93" y1="7.08517e-08" x2="294.93" y2="1100.2" gradientUnits="userSpaceOnUse">
<stop offset="0.0153773" stop-color="#BCE2D7"/>
<stop offset="0.501172" stop-color="#5B9E91"/>
<stop offset="0.831683" stop-color="#418B7E"/>
</linearGradient>
<linearGradient id="paint10_linear_546_5554" x1="294.93" y1="7.08517e-08" x2="294.93" y2="1100.2" gradientUnits="userSpaceOnUse">
<stop offset="0.0153773" stop-color="#BCE2D7"/>
<stop offset="0.501172" stop-color="#5B9E91"/>
<stop offset="0.831683" stop-color="#418B7E"/>
</linearGradient>
<linearGradient id="paint11_linear_546_5554" x1="294.93" y1="7.08517e-08" x2="294.93" y2="1100.2" gradientUnits="userSpaceOnUse">
<stop offset="0.0153773" stop-color="#BCE2D7"/>
<stop offset="0.501172" stop-color="#5B9E91"/>
<stop offset="0.831683" stop-color="#418B7E"/>
</linearGradient>
<linearGradient id="paint12_linear_546_5554" x1="294.93" y1="7.08517e-08" x2="294.93" y2="1100.2" gradientUnits="userSpaceOnUse">
<stop offset="0.0153773" stop-color="#BCE2D7"/>
<stop offset="0.501172" stop-color="#5B9E91"/>
<stop offset="0.831683" stop-color="#418B7E"/>
</linearGradient>
<linearGradient id="paint13_linear_546_5554" x1="294.93" y1="7.08517e-08" x2="294.93" y2="1100.2" gradientUnits="userSpaceOnUse">
<stop offset="0.0153773" stop-color="#BCE2D7"/>
<stop offset="0.501172" stop-color="#5B9E91"/>
<stop offset="0.831683" stop-color="#418B7E"/>
</linearGradient>
<linearGradient id="paint14_linear_546_5554" x1="294.93" y1="7.08517e-08" x2="294.93" y2="1100.2" gradientUnits="userSpaceOnUse">
<stop offset="0.0153773" stop-color="#BCE2D7"/>
<stop offset="0.501172" stop-color="#5B9E91"/>
<stop offset="0.831683" stop-color="#418B7E"/>
</linearGradient>
<linearGradient id="paint15_linear_546_5554" x1="294.93" y1="7.08517e-08" x2="294.93" y2="1100.2" gradientUnits="userSpaceOnUse">
<stop offset="0.0153773" stop-color="#BCE2D7"/>
<stop offset="0.501172" stop-color="#5B9E91"/>
<stop offset="0.831683" stop-color="#418B7E"/>
</linearGradient>
<linearGradient id="paint16_linear_546_5554" x1="294.93" y1="7.08517e-08" x2="294.93" y2="1100.2" gradientUnits="userSpaceOnUse">
<stop offset="0.0153773" stop-color="#BCE2D7"/>
<stop offset="0.501172" stop-color="#5B9E91"/>
<stop offset="0.831683" stop-color="#418B7E"/>
</linearGradient>
<linearGradient id="paint17_linear_546_5554" x1="294.93" y1="7.08517e-08" x2="294.93" y2="1100.2" gradientUnits="userSpaceOnUse">
<stop offset="0.0153773" stop-color="#BCE2D7"/>
<stop offset="0.501172" stop-color="#5B9E91"/>
<stop offset="0.831683" stop-color="#418B7E"/>
</linearGradient>
<linearGradient id="paint18_linear_546_5554" x1="294.93" y1="7.08517e-08" x2="294.93" y2="1100.2" gradientUnits="userSpaceOnUse">
<stop offset="0.0153773" stop-color="#BCE2D7"/>
<stop offset="0.501172" stop-color="#5B9E91"/>
<stop offset="0.831683" stop-color="#418B7E"/>
</linearGradient>
<linearGradient id="paint19_linear_546_5554" x1="294.93" y1="7.08517e-08" x2="294.93" y2="1100.2" gradientUnits="userSpaceOnUse">
<stop offset="0.0153773" stop-color="#BCE2D7"/>
<stop offset="0.501172" stop-color="#5B9E91"/>
<stop offset="0.831683" stop-color="#418B7E"/>
</linearGradient>
</defs>
</svg>
