<svg width="32" height="32" viewBox="0 0 32 32" fill="none" xmlns="http://www.w3.org/2000/svg">
<path d="M14.9482 8.34254C15.2072 7.45683 15.3368 7.01398 15.5856 7.01398C15.8344 7.01398 15.964 7.45683 16.223 8.34254L16.8848 10.6057C17.3839 12.3123 17.6335 13.1656 18.2341 13.7662C18.8347 14.3668 19.688 14.6164 21.3946 15.1155L23.6578 15.7773C24.5435 16.0363 24.9863 16.1659 24.9863 16.4147C24.9863 16.6635 24.5435 16.7931 23.6578 17.0521L21.3946 17.7139C19.688 18.213 18.8347 18.4626 18.2341 19.0632C17.6335 19.6638 17.3839 20.5171 16.8848 22.2237L16.223 24.4869C15.964 25.3726 15.8344 25.8154 15.5856 25.8154C15.3368 25.8154 15.2072 25.3726 14.9482 24.4869L14.2864 22.2237C13.7873 20.5171 13.5377 19.6638 12.9371 19.0632C12.3365 18.4626 11.4832 18.213 9.7766 17.7139L7.51344 17.0521C6.62773 16.7931 6.18487 16.6635 6.18487 16.4147C6.18487 16.1659 6.62773 16.0363 7.51344 15.7773L9.7766 15.1155C11.4832 14.6164 12.3365 14.3668 12.9371 13.7662C13.5377 13.1656 13.7873 12.3123 14.2864 10.6057L14.9482 8.34254Z" fill="black"/>
<path d="M22.7947 6.42273C22.6652 5.97988 22.6004 5.75845 22.476 5.75845C22.3516 5.75845 22.2868 5.97988 22.1573 6.42273L22.1128 6.57487C21.8633 7.42817 21.7385 7.85482 21.4382 8.15512C21.1379 8.45543 20.7113 8.5802 19.858 8.82975L19.7058 8.87424C19.263 9.00375 19.0415 9.06851 19.0415 9.19293C19.0415 9.31735 19.263 9.3821 19.7058 9.51161L19.858 9.55611C20.7113 9.80565 21.1379 9.93042 21.4382 10.2307C21.7385 10.531 21.8633 10.9577 22.1128 11.811L22.1573 11.9631C22.2868 12.406 22.3516 12.6274 22.476 12.6274C22.6004 12.6274 22.6652 12.406 22.7947 11.9631L22.8392 11.811C23.0887 10.9577 23.2135 10.531 23.5138 10.2307C23.8141 9.93042 24.2408 9.80565 25.0941 9.55611L25.2462 9.51161C25.6891 9.3821 25.9105 9.31735 25.9105 9.19293C25.9105 9.06851 25.6891 9.00375 25.2462 8.87424L25.0941 8.82975C24.2408 8.5802 23.8141 8.45543 23.5138 8.15512C23.2135 7.85482 23.0887 7.42817 22.8392 6.57487L22.7947 6.42273Z" fill="black"/>
<path d="M8.77308 21.5663C8.70832 21.3449 8.67594 21.2342 8.61373 21.2342C8.55152 21.2342 8.51914 21.3449 8.45439 21.5663L8.43025 21.6489C8.23061 22.3315 8.1308 22.6728 7.89055 22.9131C7.65031 23.1533 7.30899 23.2532 6.62634 23.4528L6.54381 23.4769C6.32238 23.5417 6.21167 23.5741 6.21167 23.6363C6.21167 23.6985 6.32238 23.7309 6.54381 23.7956L6.62634 23.8197C7.30899 24.0194 7.65031 24.1192 7.89055 24.3594C8.1308 24.5997 8.23061 24.941 8.43025 25.6237L8.45439 25.7062C8.51914 25.9276 8.55152 26.0383 8.61373 26.0383C8.67594 26.0383 8.70832 25.9276 8.77308 25.7062L8.79721 25.6237C8.99685 24.941 9.09667 24.5997 9.33691 24.3594C9.57716 24.1192 9.91848 24.0194 10.6011 23.8197L10.6837 23.7956C10.9051 23.7309 11.0158 23.6985 11.0158 23.6363C11.0158 23.5741 10.9051 23.5417 10.6837 23.4769L10.6011 23.4528C9.91848 23.2532 9.57716 23.1533 9.33691 22.9131C9.09667 22.6728 8.99685 22.3315 8.79721 21.6489L8.77308 21.5663Z" fill="black"/>
</svg>
