<svg width="22" height="22" viewBox="0 0 22 22" fill="none" xmlns="http://www.w3.org/2000/svg">
<path d="M3.55664 10.6663L2.9281 10.0378L2.29956 10.6663L2.9281 11.2949L3.55664 10.6663ZM16.89 11.5552C17.3809 11.5552 17.7789 11.1573 17.7789 10.6663C17.7789 10.1754 17.3809 9.77745 16.89 9.77745V10.6663V11.5552ZM8.88997 5.33301L8.26144 4.70447L2.9281 10.0378L3.55664 10.6663L4.18518 11.2949L9.51851 5.96155L8.88997 5.33301ZM3.55664 10.6663L2.9281 11.2949L8.26144 16.6282L8.88997 15.9997L9.51851 15.3711L4.18518 10.0378L3.55664 10.6663ZM3.55664 10.6663V11.5552H16.89V10.6663V9.77745H3.55664V10.6663Z" fill="black"/>
</svg>
