<svg width="22" height="22" viewBox="0 0 22 22" fill="none" xmlns="http://www.w3.org/2000/svg">
<path d="M17.7773 10.6663L18.4059 10.0378L19.0344 10.6663L18.4059 11.2949L17.7773 10.6663ZM4.44401 11.5552C3.95309 11.5552 3.55512 11.1573 3.55512 10.6663C3.55512 10.1754 3.95309 9.77745 4.44401 9.77745V10.6663V11.5552ZM12.444 5.33301L13.0725 4.70447L18.4059 10.0378L17.7773 10.6663L17.1488 11.2949L11.8155 5.96155L12.444 5.33301ZM17.7773 10.6663L18.4059 11.2949L13.0725 16.6282L12.444 15.9997L11.8155 15.3711L17.1488 10.0378L17.7773 10.6663ZM17.7773 10.6663V11.5552H4.44401V10.6663V9.77745H17.7773V10.6663Z" fill="black"/>
</svg>
