<svg width="24" height="24" viewBox="0 0 24 24" fill="none" xmlns="http://www.w3.org/2000/svg">
<path d="M11.7286 8.27142C12.7542 9.87477 14.1254 11.237 15.7471 12.2529L8.85746 19.1435C8.4324 19.5686 8.21914 19.7811 7.95804 19.9208C7.6971 20.0604 7.40244 20.1195 6.81351 20.2372L3.73636 20.8525C3.40375 20.919 3.23722 20.952 3.14261 20.8574C3.04832 20.7628 3.08109 20.5966 3.1475 20.2646L3.76371 17.1874C3.8816 16.598 3.94038 16.303 4.08011 16.0419C4.21985 15.7809 4.43247 15.5685 4.85746 15.1435L11.7286 8.27142ZM16.1123 4.03607C16.6719 3.7588 17.3292 3.75882 17.8887 4.03607C18.1828 4.18181 18.4558 4.45469 19.001 4.99994C19.546 5.54496 19.8192 5.81725 19.9649 6.11127C20.2421 6.67075 20.2421 7.32813 19.9649 7.88763C19.8191 8.18173 19.5463 8.45469 19.001 8.99994L17.2041 10.7958C15.5316 9.84449 14.1464 8.4681 13.1827 6.81732L15.001 4.99994C15.546 4.4549 15.8184 4.18185 16.1123 4.03607Z" fill="black"/>
</svg>
