<svg width="32" height="32" viewBox="0 0 32 32" fill="none" xmlns="http://www.w3.org/2000/svg">
<path d="M22.1026 11.3679L8.87749 6.95949C8.47707 6.82601 8.27686 6.75928 8.13843 6.85905C8 6.95883 8 7.16987 8 7.59194V17.3337L22.1026 12.6328C22.887 12.3713 23.2792 12.2406 23.2792 12.0003C23.2792 11.7601 22.887 11.6293 22.1026 11.3679Z" fill="black"/>
<path d="M8 17.3337V7.59194C8 7.16987 8 6.95883 8.13843 6.85905C8.27686 6.75928 8.47707 6.82601 8.87749 6.95949L22.1026 11.3679C22.887 11.6293 23.2792 11.7601 23.2792 12.0003C23.2792 12.2406 22.887 12.3713 22.1026 12.6328L8 17.3337ZM8 17.3337V24.0003V25.3337" stroke="black" stroke-width="2.66667" stroke-linecap="round"/>
</svg>
