<svg width="32" height="32" viewBox="0 0 32 32" fill="none" xmlns="http://www.w3.org/2000/svg">
<path d="M25.3327 25.333L6.66602 25.333" stroke="black" stroke-width="2.66667" stroke-linecap="round" stroke-linejoin="round"/>
<path d="M16 5.33301L16 9.33301" stroke="black" stroke-width="2.66667" stroke-linecap="round" stroke-linejoin="round"/>
<path d="M27.3327 12L23.9993 13.3333M4.66602 12L7.99935 13.3333" stroke="black" stroke-width="2.66667" stroke-linecap="round" stroke-linejoin="round"/>
<path d="M23.3327 7.33301L21.3327 9.99967M8.66602 7.33301L10.666 9.99967" stroke="black" stroke-width="2.66667" stroke-linecap="round" stroke-linejoin="round"/>
<path d="M19.5684 14.667C20.577 14.667 21.4276 15.4181 21.5527 16.4189L22.667 25.334H9.33398L10.4482 16.4189C10.5733 15.4182 11.4241 14.6671 12.4326 14.667H19.5684ZM16.667 16C16.299 16.0002 16 16.2989 16 16.667C16 17.0351 16.299 17.3338 16.667 17.334H19.334C19.702 17.3338 20 17.0351 20 16.667C20 16.2989 19.702 16.0002 19.334 16H16.667Z" fill="black"/>
</svg>
