<svg width="24" height="24" viewBox="0 0 24 24" fill="none" xmlns="http://www.w3.org/2000/svg">
<circle cx="11.9993" cy="8.00033" r="5.33333" fill="black"/>
<circle cx="18.666" cy="8" r="4" fill="black"/>
<circle cx="5.33398" cy="8" r="4" fill="black"/>
<path d="M18.667 13.333C22.1387 13.3333 23.396 17.0238 23.8125 18.9131C23.9398 19.4908 23.4862 20 22.8945 20H19.4248C18.8875 17.9873 17.8475 15.7048 15.8379 14.4004C16.5607 13.762 17.4853 13.333 18.667 13.333Z" fill="black"/>
<path d="M5.33403 13.333C6.51557 13.333 7.44033 13.7611 8.16313 14.3994C6.15306 15.7037 5.11364 17.9871 4.57622 20H1.10552C0.51399 19.9999 0.0602785 19.4908 0.187547 18.9131C0.604025 17.0237 1.862 13.333 5.33403 13.333Z" fill="black"/>
<path d="M12.0007 14.667C17.1966 14.667 18.3429 19.5266 18.5957 21.6707C18.6604 22.2192 18.2196 22.667 17.6673 22.667H6.33398C5.7817 22.667 5.34088 22.2192 5.40557 21.6707C5.65845 19.5266 6.80473 14.667 12.0007 14.667Z" fill="black"/>
</svg>
