<svg width="80" height="80" viewBox="0 0 80 80" fill="none" xmlns="http://www.w3.org/2000/svg">
<path d="M10.7327 43.3312H31.666L33.3327 39.9979L39.9994 54.9979L46.666 31.6645L51.666 43.3312H69.2327M6.66602 31.6645C6.66608 27.9552 7.79133 24.3331 9.89313 21.2767C11.9949 18.2203 14.9744 15.8734 18.438 14.5459C21.9017 13.2183 25.6865 12.9727 29.2927 13.8413C32.8989 14.71 36.1568 16.6521 38.636 19.4112C38.8106 19.5979 39.0218 19.7468 39.2563 19.8485C39.4908 19.9503 39.7437 20.0028 39.9994 20.0028C40.255 20.0028 40.5079 19.9503 40.7424 19.8485C40.9769 19.7468 41.1881 19.5979 41.3627 19.4112C43.8341 16.6342 47.0928 14.6757 50.7048 13.7965C54.3168 12.9173 58.111 13.159 61.5823 14.4895C65.0535 15.8199 68.0373 18.176 70.1364 21.2442C72.2355 24.3124 73.3504 27.9471 73.3327 31.6645C73.3327 39.2979 68.3327 44.9979 63.3327 49.9979L45.026 67.7079C44.4049 68.4212 43.6391 68.9942 42.7795 69.3889C41.9199 69.7835 40.9862 69.9907 40.0403 69.9967C39.0945 70.0027 38.1582 69.8073 37.2936 69.4236C36.4291 69.0399 35.6561 68.4766 35.026 67.7712L16.666 49.9979C11.666 44.9979 6.66602 39.3312 6.66602 31.6645Z" stroke="black" stroke-width="6.66667" stroke-linecap="round" stroke-linejoin="round"/>
</svg>
