<svg width="24" height="24" viewBox="0 0 24 24" fill="none" xmlns="http://www.w3.org/2000/svg">
<circle cx="12" cy="12" r="10" stroke="black" stroke-width="2" stroke-linecap="round"/>
<circle cx="9" cy="10" r="1.25" fill="black" stroke="black" stroke-width="0.5" stroke-linecap="round"/>
<circle cx="15" cy="10" r="1.25" fill="black" stroke="black" stroke-width="0.5" stroke-linecap="round"/>
<path d="M16.7119 13.7139C17.0051 13.7139 17.1517 13.7139 17.2261 13.8229C17.3006 13.932 17.2514 14.0576 17.1532 14.3087C16.835 15.1215 16.2708 15.7904 15.6242 16.2754C14.6257 17.0243 13.3377 17.4286 12.0002 17.4287C10.6628 17.4287 9.37481 17.0242 8.3762 16.2754C7.72958 15.7904 7.16536 15.1215 6.84726 14.3087C6.74898 14.0576 6.69985 13.932 6.77429 13.8229C6.84873 13.7139 6.99534 13.7139 7.28857 13.7139H16.7119Z" fill="black"/>
</svg>
