<svg width="48" height="48" viewBox="0 0 48 48" fill="none" xmlns="http://www.w3.org/2000/svg">
<path d="M29.834 8C30.4067 8 30.693 8 30.9734 8.08384C32.1956 8.44932 32.7682 9.85664 32.1485 10.9716C32.0064 11.2274 31.5756 11.6475 30.7142 12.4877C27.7312 15.3973 25.876 19.4795 25.876 24C25.876 28.5202 27.7312 32.6019 30.714 35.5112C31.5763 36.3522 32.0074 36.7727 32.1496 37.0286C32.769 38.1434 32.1965 39.5505 30.9746 39.9161C30.6941 40 30.4074 40 29.834 40C21.0892 39.9999 14 32.8365 14 24C14 15.1635 21.0892 8.00012 29.834 8Z" fill="black"/>
</svg>
