<svg width="48" height="48" viewBox="0 0 48 48" fill="none" xmlns="http://www.w3.org/2000/svg">
<path d="M23.751 18C26.9992 18 29.668 20.6666 29.668 24C29.668 27.3334 26.9992 30 23.751 30C20.5027 30 17.834 27.3334 17.834 24C17.834 20.6666 20.5027 18 23.751 18Z" stroke="black" stroke-width="4"/>
<path d="M23.75 10V6" stroke="black" stroke-width="4" stroke-linecap="round"/>
<path d="M23.75 42V38" stroke="black" stroke-width="4" stroke-linecap="round"/>
<path d="M32.1418 12.6793C31.3648 13.4644 31.3648 14.7373 32.1418 15.5225C32.9187 16.3076 34.1784 16.3076 34.9554 15.5225L33.5486 14.1009L32.1418 12.6793ZM37.7545 12.694C38.5314 11.9089 38.5314 10.636 37.7545 9.85089C36.9775 9.06578 35.7178 9.06578 34.9408 9.85089L36.3477 11.2725L37.7545 12.694ZM33.5486 14.1009L34.9554 15.5225L37.7545 12.694L36.3477 11.2725L34.9408 9.85089L32.1418 12.6793L33.5486 14.1009Z" fill="black"/>
<path d="M9.74918 35.3063C8.97222 36.0914 8.97222 37.3643 9.74918 38.1494C10.5261 38.9345 11.7859 38.9345 12.5628 38.1494L11.156 36.7278L9.74918 35.3063ZM15.3619 35.321C16.1389 34.5359 16.1389 33.263 15.3619 32.4778C14.5849 31.6927 13.3252 31.6927 12.5483 32.4778L13.9551 33.8994L15.3619 35.321ZM11.156 36.7278L12.5628 38.1494L15.3619 35.321L13.9551 33.8994L12.5483 32.4778L9.74918 35.3063L11.156 36.7278Z" fill="black"/>
<path d="M37.606 24L41.5645 24" stroke="black" stroke-width="4" stroke-linecap="round"/>
<path d="M5.93799 24L9.89648 24" stroke="black" stroke-width="4" stroke-linecap="round"/>
<path d="M34.9554 32.4775C34.1784 31.6924 32.9187 31.6924 32.1418 32.4775C31.3648 33.2627 31.3648 34.5356 32.1418 35.3207L33.5486 33.8991L34.9554 32.4775ZM34.9408 38.1491C35.7178 38.9342 36.9775 38.9342 37.7545 38.1491C38.5314 37.364 38.5314 36.0911 37.7545 35.306L36.3477 36.7275L34.9408 38.1491ZM33.5486 33.8991L32.1418 35.3207L34.9408 38.1491L36.3477 36.7275L37.7545 35.306L34.9554 32.4775L33.5486 33.8991Z" fill="black"/>
<path d="M12.5628 9.85059C11.7859 9.06548 10.5261 9.06548 9.74918 9.85059C8.97222 10.6357 8.97222 11.9086 9.74918 12.6937L11.156 11.2722L12.5628 9.85059ZM12.5483 15.5222C13.3252 16.3073 14.5849 16.3073 15.3619 15.5222C16.1389 14.737 16.1389 13.4641 15.3619 12.679L13.9551 14.1006L12.5483 15.5222ZM11.156 11.2722L9.74918 12.6937L12.5483 15.5222L13.9551 14.1006L15.3619 12.679L12.5628 9.85059L11.156 11.2722Z" fill="black"/>
</svg>
