<svg width="32" height="32" viewBox="0 0 32 32" fill="none" xmlns="http://www.w3.org/2000/svg">
<path d="M14.6667 27.9997C14.6667 28.7361 15.2636 29.333 16 29.333C16.7364 29.333 17.3333 28.7361 17.3333 27.9997H16H14.6667ZM16 25.333H14.6667V27.9997H16H17.3333V25.333H16Z" fill="black"/>
<path d="M8.60094 20.4553L15.9993 12L23.3978 20.4553C24.1521 21.3174 23.5399 22.6667 22.3943 22.6667H9.60437C8.45883 22.6667 7.84659 21.3174 8.60094 20.4553Z" fill="black"/>
<path d="M9.92 12.1067L14.9333 5.42222C15.4667 4.71111 16.5333 4.71111 17.0667 5.42222L22.08 12.1067C22.8711 13.1614 22.1185 14.6667 20.8 14.6667H11.2C9.88153 14.6667 9.12892 13.1614 9.92 12.1067Z" fill="black"/>
</svg>
