<svg width="32" height="32" viewBox="0 0 32 32" fill="none" xmlns="http://www.w3.org/2000/svg">
<path d="M15.9701 10.4452C16.8938 12.214 17.3619 14.1852 17.332 16.1804C17.302 18.1757 16.775 20.132 15.7985 21.8722" stroke="black" stroke-width="2.66667"/>
<path d="M18.6667 6.66699C14.9143 10.4194 5.29516 15.3451 4.11853 15.9406C4.06952 15.9654 4.06952 16.0353 4.11853 16.0601C5.29517 16.6556 14.9143 21.5813 18.6667 25.3337" stroke="black" stroke-width="2.66667" stroke-linecap="round"/>
<path d="M21.334 16H28.0007" stroke="black" stroke-width="2.66667" stroke-linecap="round"/>
<path d="M21.334 11.9997L28.0007 9.33301" stroke="black" stroke-width="2.66667" stroke-linecap="round"/>
<path d="M21.334 20.0003L28.0007 22.667" stroke="black" stroke-width="2.66667" stroke-linecap="round"/>
<path d="M15.7253 9.9998C16.7232 11.7279 17.2743 13.6775 17.3288 15.6723C17.3834 17.667 16.9397 19.6438 16.0378 21.4239" stroke="black" stroke-width="2.66667"/>
<path d="M16.6902 18.5748C16.2951 18.6807 15.8809 18.6942 15.4798 18.6145C15.0786 18.5347 14.7011 18.3636 14.3766 18.1146C14.0521 17.8656 13.7893 17.5453 13.6083 17.1785C13.4274 16.8116 13.3333 16.4081 13.3333 15.999C13.3333 15.59 13.4274 15.1864 13.6083 14.8196C13.7893 14.4527 14.0521 14.1324 14.3766 13.8834C14.7011 13.6344 15.0786 13.4634 15.4798 13.3836C15.8809 13.3038 16.2951 13.3174 16.6902 13.4232" stroke="black" stroke-width="2.66667"/>
</svg>
