<svg width="345" height="319" viewBox="0 0 345 319" fill="none" xmlns="http://www.w3.org/2000/svg">
<path d="M216.317 137.565C219.494 139.907 222.654 141.914 225.459 144.343C239.227 156.297 242.865 174.142 234.454 188.071C229.739 195.864 222.56 200.357 214.019 202.833C202.683 206.127 191.123 206.34 179.464 205.108C178.361 204.995 177.264 204.917 175.576 204.779C176.084 206.676 176.528 208.125 176.847 209.603C178.802 218.846 181.649 228.024 182.487 237.364C185.739 273.739 159.259 299.227 122.946 295.266C106.782 293.506 92.584 287.173 80.1239 276.809C67.5864 266.373 57.8037 253.756 50.4998 239.221C40.679 219.675 33.319 199.162 27.1087 178.215C25.3052 172.13 26.5416 167.736 30.3927 165.024C33.9511 162.521 39.8465 162.803 44.2153 165.679C48.1657 168.299 48.5254 172.309 44.7657 175.213C43.017 176.556 42.3732 177.617 43.0655 179.782C55.7741 219.982 78.6862 251.43 118.695 268.263C121.199 269.318 123.823 270.079 126.42 270.931C149.952 278.615 166.728 258.469 165.812 241.167C165.478 234.958 164.206 228.635 162.288 222.713C160.042 215.789 157.022 209.03 153.529 202.642C151.128 198.241 147.352 194.585 144.122 190.647C143.132 189.431 141.796 188.491 140.826 187.265C136.611 181.98 136.786 175.164 141.183 170.834C145.424 166.639 152.232 166.286 157.244 170.604C170.593 182.137 186.45 184.317 203.166 183.326C206.387 183.128 209.736 182.276 212.69 180.977C220.337 177.628 222.685 168.985 217.009 162.905C213.547 159.194 208.688 156.304 203.912 154.411C196.752 151.564 189.066 150.043 181.692 147.693C176.409 146.012 173.316 141.719 173.329 136.897C173.348 131.944 176.354 127.746 181.441 125.811C183.039 125.198 184.737 124.861 186.407 124.45C189.618 123.673 193.037 123.418 195.996 122.105C203.415 118.802 211.174 115.799 217.806 111.259C228.298 104.091 230.246 93.3527 224.504 82.0486C212.268 57.9818 188.589 45.182 161.77 48.2517C116.79 53.4158 87.9689 84.0238 80.1167 121.407C75.9976 140.972 83.902 156.87 98.1087 169.843C104.29 175.497 109.953 175.116 116.662 169.874C116.896 169.697 117.089 169.49 117.333 169.332C119.987 167.549 122.551 164.455 126.07 167.03C129.303 169.405 128.956 173.074 128.072 176.501C126.279 183.497 121.835 188.043 114.877 189.901C104.983 192.551 95.5545 191.074 87.5623 184.753C71.9525 172.401 60.3733 157.176 57.1345 136.929C55.3892 126.035 57.676 115.431 61.5979 105.311C74.9954 70.7243 99.5182 48.1153 135.337 38.2426C152.842 33.4172 170.739 30.2725 188.904 33.6143C217.236 38.833 234.838 56.7986 243.579 83.3213C249.399 100.973 243.291 116.078 229.468 128.04C225.497 131.491 220.938 134.257 216.317 137.565Z" fill="black"/>
<path d="M314.903 112.297C309.808 128.987 300.1 141.345 284.074 148.124C278.049 150.67 271.72 151.907 265.147 150.799C259.012 149.771 254.709 145.893 253.668 140.627C252.643 135.415 255.184 130.123 260.409 126.83C262.107 125.768 263.877 124.745 265.753 124.082C287.439 116.378 297.414 100.064 299.342 78.0543C299.787 72.9979 298.948 67.8247 298.771 62.6992C298.722 61.2518 298.958 59.7899 299.059 58.3375C300.511 58.7184 302.176 58.7674 303.397 59.5408C310.166 63.8202 313.957 70.3132 316.187 77.793C319.705 89.5416 317.714 101.091 314.903 112.297Z" fill="black"/>
<path d="M337.19 162.317C328.701 187.29 309.939 198.299 284.878 195.383C279.545 194.758 275.03 192.267 272.273 187.398C270.185 183.716 270.1 179.836 272.639 176.438C275.035 173.245 278.121 171.722 282.653 172.159C286.623 172.546 290.765 170.907 294.849 170.355C313.66 167.795 324.058 156.053 329.434 138.804C329.777 137.703 329.962 136.523 330.499 135.546C331.06 134.542 331.977 133.727 332.736 132.832C333.589 133.678 334.797 134.382 335.236 135.401C339.132 144.429 339.359 153.72 337.19 162.317Z" fill="black"/>
<path d="M115.016 134.594C112.632 132.792 108.715 130.715 105.978 127.6C101.413 122.417 103.465 116.409 109.483 113.038C121.853 106.114 128.635 113.496 134.187 123.208C136.108 126.577 135.131 130.225 131.746 132.262C127.083 135.06 121.867 135.823 115.016 134.594Z" fill="black"/>
</svg>
