<svg width="187" height="195" viewBox="0 0 187 195" fill="none" xmlns="http://www.w3.org/2000/svg">
<path d="M125.864 87.0723C130.534 86.0575 135.159 84.6309 139.888 84.1015C149.816 82.9837 159.819 81.4395 169.747 81.7337C182.828 82.1307 188.44 89.0871 186.687 102.059C184.831 115.795 182.121 129.443 179.366 143.047C177.466 152.459 174.932 161.739 172.575 171.049C171.986 173.343 171.323 175.873 168.185 176.02C164.915 176.167 162.529 174.387 161.748 171.578C160.761 168.063 159.76 164.137 160.334 160.651C162.794 145.65 165.799 130.737 168.701 115.824C169.777 110.324 171.264 104.897 172.266 99.3966C173.223 94.1462 172.693 93.4109 167.243 93.8227C162.205 94.2051 157.167 95.0581 152.262 96.2641C143.571 98.3819 134.997 101.044 126.306 103.22C123.36 103.956 120.193 104.368 117.173 104.206C107.098 103.647 101.323 95.4993 104.667 86.0133C106.42 81.0571 109.16 76.3067 112.135 71.9241C119.191 61.5263 126.763 51.4962 133.893 41.1572C137.531 35.8921 140.772 30.3329 143.968 24.7736C146.001 21.2146 145.486 19.7292 141.405 19.3468C134.791 18.7291 127.986 18.082 121.46 18.9497C91.5861 22.9206 64.2755 33.5831 40.3382 52.0992C36.0515 55.4082 32.4278 59.6144 28.7599 63.6441C26.2262 66.4237 26.5061 69.218 29.9973 71.2329C38.2907 76.0421 46.584 80.8512 55.3487 85.9251C56.5124 82.7631 57.1901 80.3659 58.2507 78.1304C60.3572 73.689 62.2722 69.0709 64.9973 65.0265C67.8109 60.8497 72.5247 59.8792 76.3252 61.7028C80.1405 63.5412 81.584 67.512 80.4203 72.6889C72.6572 107.206 64.9236 141.738 57.2048 176.27C56.1589 180.947 55.6139 185.785 54.1555 190.33C53.5368 192.271 51.2389 194.889 49.5743 194.992C47.3647 195.124 43.8146 193.653 42.975 191.874C41.1042 187.903 39.4249 183.256 39.6606 179.005C40.4119 165.843 41.6198 152.65 43.5348 139.605C45.2583 127.869 48.1749 116.31 50.5612 104.662C50.7969 103.529 50.959 102.382 51.1357 101.412C44.7574 100.294 38.5852 99.7349 32.7372 98.0436C26.3588 96.2052 19.9509 93.9404 14.1176 90.7931C1.08098 83.7485 -3.11727 71.0858 2.31834 57.2907C5.73585 48.6137 11.4366 41.6425 18.4632 35.6568C34.6522 21.8176 53.8167 13.6552 73.8651 7.44892C94.7827 0.977863 116.127 -2.33125 137.988 1.87493C143.055 2.84559 148.181 4.40455 152.763 6.68413C161.63 11.1109 164.694 19.2439 161.498 28.6122C160.261 32.2448 158.611 35.8627 156.534 39.0688C147.519 52.9669 138.282 66.7179 129.12 80.513C127.882 82.3807 126.616 84.2338 125.349 86.1016C125.526 86.4104 125.702 86.7487 125.864 87.0723Z" fill="url(#paint0_linear_536_6338)"/>
<defs>
<linearGradient id="paint0_linear_536_6338" x1="128" y1="-6.00001" x2="51" y2="130.5" gradientUnits="userSpaceOnUse">
<stop stop-color="#C9CFFC"/>
<stop offset="1" stop-color="#C9CFFC" stop-opacity="0.2"/>
</linearGradient>
</defs>
</svg>
