<svg width="386" height="174" viewBox="0 0 386 174" fill="none" xmlns="http://www.w3.org/2000/svg">
<path d="M199.08 120.889C210.566 124.168 221.603 128.174 233.324 127.92C237.302 127.835 241.7 125.851 245.08 123.521C251.198 119.293 254.999 112.96 257.739 106.288C256.274 104.917 254.791 103.923 253.874 102.577C251.608 99.2429 251.048 95.5442 253.472 92.1127C255.812 88.7964 259.33 88.2426 263.112 89.1847C271.122 91.1778 275.657 98.9203 273.782 108.088C271.587 118.857 265.635 127.571 257.93 135.153C248.985 143.963 237.992 148.115 225.721 146.139C211.755 143.893 197.844 140.868 184.242 137.013C164.101 131.314 144.43 123.967 124.236 118.502C109.338 114.471 94.0127 111.787 78.7345 109.468C64.7769 107.344 50.9274 109.275 37.7486 114.536C20.8491 121.276 18.4752 132.831 31.2043 145.896C37.1766 152.028 44.3057 155.294 52.9392 153.138C54.7225 152.693 56.7757 150.689 57.4526 148.918C59.6862 143.108 62.7307 140.165 67.372 140.404C71.9784 140.636 76.0333 144.407 77.3732 149.722C79.4466 157.984 75.4563 165.954 66.7729 169.418C48.5025 176.707 31.4746 174.409 16.6888 161.143C12.0651 157 7.95554 151.903 4.8739 146.517C-4.87612 129.468 0.420392 109.21 17.0513 98.8261C32.2728 89.3128 49.3554 86.3881 66.9367 86.3577C91.1323 86.3168 114.51 91.3946 137.327 99.1072C151.044 103.746 164.653 108.697 178.316 113.492C179.898 114.052 181.515 114.538 183.052 115.027C187.977 96.8191 199.814 82.5002 208.009 65.6447C205.268 65.3385 203.054 65.0041 200.834 64.8405C193.399 64.3157 185.923 64.1707 178.531 63.2882C164.386 61.6132 152.632 55.2564 143.552 44.2066C130.74 28.5875 135.487 11.0307 154.457 4.01417C165.74 -0.161793 177.471 -0.564448 189.291 0.500209C208.375 2.219 226.287 8.33308 243.773 15.737C264.024 24.3028 283.569 34.2486 302.019 46.2476C315.671 55.1269 327.995 65.5992 338.87 77.7519C339.711 78.6913 340.598 79.5666 341.791 80.8C346.668 74.622 351.31 68.6629 356.053 62.7778C358.833 59.3117 361.528 55.746 364.684 52.6493C369.523 47.925 375.979 47.4876 380.769 51.0497C385.64 54.6894 386.885 61.2412 383.794 67.3472C382.963 69.0073 382.105 70.7059 380.984 72.1752C363.483 95.2413 346.063 118.385 328.226 141.189C325.683 144.436 321.251 146.629 317.254 148.221C313.195 149.846 308.954 148.649 305.881 145.219C302.782 141.769 302.386 137.682 304.131 133.546C305.341 130.659 306.916 127.862 308.71 125.301C314.756 116.752 320.866 108.25 327.22 99.9236C329.351 97.1384 329.117 95.6831 326.502 93.3436C303.331 72.5124 276.396 57.963 247.63 46.7274C233.102 41.0537 218.137 36.3889 203.144 32.1131C191.659 28.8346 179.689 28.2464 167.703 29.2441C165.751 29.4107 163.765 29.0851 161.812 29.6023C165.393 36.8306 170.619 40.7074 177.289 42.1015C183.151 43.3202 189.199 43.6605 195.167 44.4098C202.407 45.3392 209.789 45.6691 216.85 47.3849C228.263 50.1434 232.427 58.3978 227.307 68.9802C222.263 79.4034 215.894 89.1799 210.149 99.2519C206.894 104.966 203.655 110.711 200.511 116.486C199.834 117.692 199.625 119.139 199.08 120.889Z" fill="url(#paint0_linear_536_6337)"/>
<defs>
<linearGradient id="paint0_linear_536_6337" x1="193.87" y1="-16.4033" x2="105.37" y2="156.097" gradientUnits="userSpaceOnUse">
<stop stop-color="#F2EAE0"/>
<stop offset="1" stop-color="#B67E59"/>
</linearGradient>
</defs>
</svg>
