<svg width="271" height="254" viewBox="0 0 271 254" fill="none" xmlns="http://www.w3.org/2000/svg">
<path d="M12.0878 151.949C14.7127 150.357 17.5179 149.005 19.9123 147.122C24.6311 143.407 29.1295 139.432 33.6879 135.517C39.7893 130.28 46.1811 125.484 53.8053 122.63C57.7727 121.138 61.7701 120.657 65.7274 122.64C70.2558 124.913 72.4098 128.898 73.4618 133.614C74.9445 140.223 73.7724 146.722 72.0391 153.03C68.6428 165.386 64.7356 177.603 61.2191 189.929C57.7927 201.945 55.5485 214.211 54.757 226.678C54.4865 230.983 54.7771 235.419 55.5185 239.675C56.4702 245.172 59.7664 249.027 65.3668 250.579C66.1582 250.799 66.8796 251.25 67.5909 251.971C64.8458 253.743 61.9304 254.334 58.8747 253.823C53.2142 252.892 49.357 249.458 46.8324 244.501C43.2156 237.392 41.7429 229.722 41.7028 221.811C41.6427 207.292 44.488 193.243 49.0665 179.525C51.8617 171.164 55.0276 162.913 57.7226 154.522C59.1352 150.126 59.9267 145.54 60.9686 141.024C61.1289 140.323 61.1389 139.572 61.1389 138.851C61.1089 134.355 60.097 133.514 56.31 135.807C50.8097 139.142 45.5299 142.877 40.3203 146.652C35.2408 150.337 30.5722 154.592 25.3424 158.027C21.9862 160.23 18.0789 161.862 14.1917 162.913C8.04031 164.575 3.27146 161.601 1.23768 155.523C-0.645814 149.896 -0.114831 144.198 1.07738 138.541C3.47183 127.126 8.83177 117.013 15.2838 107.47C20.4233 99.8598 26.2541 92.7104 31.2835 85.0303C38.587 73.8955 40.2101 61.419 38.567 48.4218C38.1663 45.2677 36.9139 42.7443 33.7881 41.0321C29.941 38.9293 28.6887 35.1343 30.0111 31.7899C31.3536 28.3753 34.9703 26.7432 39.3785 27.5743C39.8294 27.6544 40.2802 27.7345 40.711 27.8847C66.8195 37.0568 89.5216 50.6648 103.227 75.9282C107.715 84.2092 110.951 92.9808 113.326 102.083C113.486 102.684 113.686 103.274 114.157 104.836C114.829 103.725 115.129 103.084 115.56 102.553C126.52 89.2859 139.565 78.762 155.574 72.1332C180.621 61.7595 205.657 51.3657 230.704 41.002C239.49 37.3672 248.156 33.5422 254.758 26.3827C256.782 24.1898 258.656 21.7966 260.199 19.2533C262.122 16.0791 261.501 13.5658 258.105 12.0738C255.179 10.7821 251.863 9.76073 248.717 9.75072C240.221 9.7307 231.856 10.8121 224.092 14.7874C222.989 15.3581 220.906 15.5183 220.144 14.8575C219.333 14.1565 218.952 11.9937 219.433 10.9523C220.254 9.14992 221.577 7.07719 223.24 6.24609C234.541 0.6587 246.333 -2.02485 258.836 1.77017C260.8 2.37096 262.703 3.42235 264.396 4.60392C270.788 9.05981 272.932 15.999 269.085 22.7579C266.3 27.6544 262.523 32.1203 258.586 36.2057C252.905 42.1135 245.732 46.0487 238.248 49.2529C218.511 57.7041 198.694 65.965 178.938 74.3762C171.073 77.7306 163.168 81.0249 155.504 84.82C139.194 92.8906 126.25 104.746 117.063 120.507C115.63 122.97 114.929 125.874 113.917 128.578C113.256 130.36 112.865 132.283 111.953 133.915C110.41 136.689 107.435 137.88 104.509 137.249C101.584 136.628 99.3198 134.335 99.0293 131.201C98.8489 129.239 99.0293 127.196 99.3499 125.243C100.472 118.474 100.021 111.886 97.9072 105.317C92.427 88.2345 83.5605 73.3148 69.9152 61.4891C66.5189 58.5452 62.7118 56.082 58.9949 53.3283C53.645 72.8141 42.1236 88.1844 30.9128 103.715C22.6675 115.14 15.2737 127.006 12.0578 140.934C11.2763 144.299 11.2362 147.833 10.8655 151.288C11.2763 151.548 11.6871 151.748 12.0878 151.949Z" fill="#B3DCD1"/>
</svg>
